<svg width="59" height="59" viewBox="0 0 59 59" fill="none" xmlns="http://www.w3.org/2000/svg">
<path d="M39.3322 49.1665V9.83317C39.3322 8.52919 38.8142 7.27862 37.8921 6.35656C36.9701 5.43451 35.7195 4.9165 34.4155 4.9165H24.5822C23.2782 4.9165 22.0276 5.43451 21.1056 6.35656C20.1835 7.27862 19.6655 8.52919 19.6655 9.83317V49.1665" stroke="#586279" stroke-width="4" stroke-linecap="round" stroke-linejoin="round"/>
<path d="M49.1655 14.75H9.83219C7.11679 14.75 4.91553 16.9513 4.91553 19.6667V44.25C4.91553 46.9654 7.11679 49.1667 9.83219 49.1667H49.1655C51.8809 49.1667 54.0822 46.9654 54.0822 44.25V19.6667C54.0822 16.9513 51.8809 14.75 49.1655 14.75Z" stroke="#586279" stroke-width="4" stroke-linecap="round" stroke-linejoin="round"/>
</svg>
