<svg width="59" height="59" viewBox="0 0 59 59" fill="none" xmlns="http://www.w3.org/2000/svg">
<path d="M29.5 17.2085V51.6252" stroke="#586279" stroke-width="3.6875" stroke-linecap="round" stroke-linejoin="round"/>
<path d="M7.3763 44.25C6.72431 44.25 6.09902 43.991 5.638 43.53C5.17697 43.0689 4.91797 42.4437 4.91797 41.7917V9.83333C4.91797 9.18134 5.17697 8.55606 5.638 8.09503C6.09902 7.634 6.72431 7.375 7.3763 7.375H19.668C22.2759 7.375 24.7771 8.41101 26.6212 10.2551C28.4653 12.0992 29.5013 14.6004 29.5013 17.2083C29.5013 14.6004 30.5373 12.0992 32.3814 10.2551C34.2255 8.41101 36.7267 7.375 39.3346 7.375H51.6263C52.2783 7.375 52.9036 7.634 53.3646 8.09503C53.8256 8.55606 54.0846 9.18134 54.0846 9.83333V41.7917C54.0846 42.4437 53.8256 43.0689 53.3646 43.53C52.9036 43.991 52.2783 44.25 51.6263 44.25H36.8763C34.9203 44.25 33.0445 45.027 31.6614 46.4101C30.2783 47.7932 29.5013 49.669 29.5013 51.625C29.5013 49.669 28.7243 47.7932 27.3412 46.4101C25.9581 45.027 24.0823 44.25 22.1263 44.25H7.3763Z" stroke="#586279" stroke-width="3.6875" stroke-linecap="round" stroke-linejoin="round"/>
</svg>
