<svg width="53" height="48" viewBox="0 0 53 48" fill="none" xmlns="http://www.w3.org/2000/svg">
<path d="M4.30208 38.7187C3.65009 38.7187 3.02481 38.4597 2.56378 37.9987C2.10275 37.5377 1.84375 36.9124 1.84375 36.2604V4.30208C1.84375 3.65009 2.10275 3.02481 2.56378 2.56378C3.02481 2.10275 3.65009 1.84375 4.30208 1.84375H16.5938C19.2017 1.84375 21.7029 2.87976 23.547 4.72387C25.3911 6.56797 26.4271 9.06912 26.4271 11.6771C26.4271 9.06912 27.4631 6.56797 29.3072 4.72387C31.1513 2.87976 33.6525 1.84375 36.2604 1.84375H48.5521C49.2041 1.84375 49.8294 2.10275 50.2904 2.56378C50.7514 3.02481 51.0104 3.65009 51.0104 4.30208V36.2604C51.0104 36.9124 50.7514 37.5377 50.2904 37.9987C49.8294 38.4597 49.2041 38.7187 48.5521 38.7187H33.8021C31.8461 38.7187 29.9703 39.4958 28.5872 40.8788C27.2041 42.2619 26.4271 44.1378 26.4271 46.0937C26.4271 44.1378 25.6501 42.2619 24.267 40.8788C22.8839 39.4958 21.0081 38.7187 19.0521 38.7187H4.30208Z" stroke="#586279" stroke-width="3.6875" stroke-linecap="round" stroke-linejoin="round"/>
</svg>
