<svg width="59" height="59" viewBox="0 0 59 59" fill="none" xmlns="http://www.w3.org/2000/svg">
<path d="M39.3322 51.625V46.7083C39.3322 44.1004 38.2962 41.5992 36.4521 39.7551C34.608 37.911 32.1068 36.875 29.4989 36.875H14.7489C12.1409 36.875 9.63975 37.911 7.79564 39.7551C5.95154 41.5992 4.91553 44.1004 4.91553 46.7083V51.625" stroke="#586279" stroke-width="4" stroke-linecap="round" stroke-linejoin="round"/>
<path d="M22.1239 27.0417C27.5547 27.0417 31.9572 22.6391 31.9572 17.2083C31.9572 11.7775 27.5547 7.375 22.1239 7.375C16.6931 7.375 12.2905 11.7775 12.2905 17.2083C12.2905 22.6391 16.6931 27.0417 22.1239 27.0417Z" stroke="#586279" stroke-width="4" stroke-linecap="round" stroke-linejoin="round"/>
<path d="M54.0845 51.6252V46.7086C54.0828 44.5298 53.3577 42.4133 52.0228 40.6913C50.688 38.9694 48.819 37.7395 46.7095 37.1948" stroke="#586279" stroke-width="4" stroke-linecap="round" stroke-linejoin="round"/>
<path d="M39.3345 7.69482C41.4497 8.2364 43.3244 9.46655 44.6633 11.1913C46.0021 12.9161 46.7288 15.0374 46.7288 17.2209C46.7288 19.4043 46.0021 21.5256 44.6633 23.2504C43.3244 24.9752 41.4497 26.2053 39.3345 26.7469" stroke="#586279" stroke-width="4" stroke-linecap="round" stroke-linejoin="round"/>
</svg>
