<svg width="59" height="59" viewBox="0 0 59 59" fill="none" xmlns="http://www.w3.org/2000/svg">
<path d="M24.5825 19.0517C24.5831 18.7243 24.671 18.4028 24.837 18.1206C25.003 17.8383 25.2411 17.6053 25.527 17.4456C25.8129 17.2859 26.1362 17.2052 26.4636 17.2118C26.791 17.2184 27.1108 17.3122 27.3899 17.4833L36.3973 23.0121C36.6657 23.1771 36.8874 23.4081 37.0412 23.6831C37.195 23.9581 37.2757 24.2679 37.2757 24.583C37.2757 24.8981 37.195 25.2079 37.0412 25.4829C36.8874 25.7579 36.6657 25.9889 36.3973 26.1539L27.3899 31.6851C27.1104 31.8565 26.7902 31.9502 26.4624 31.9566C26.1345 31.9631 25.8109 31.8819 25.5249 31.7216C25.2389 31.5613 25.0007 31.3276 24.8351 31.0447C24.6694 30.7617 24.5823 30.4397 24.5825 30.1118V19.0517Z" stroke="#586279" stroke-width="4" stroke-linecap="round" stroke-linejoin="round"/>
<path d="M29.5 41.7915V51.6248" stroke="#586279" stroke-width="4" stroke-linecap="round" stroke-linejoin="round"/>
<path d="M19.6675 51.625H39.3341" stroke="#586279" stroke-width="4" stroke-linecap="round" stroke-linejoin="round"/>
<path d="M49.1675 7.375H9.83415C7.11875 7.375 4.91748 9.57627 4.91748 12.2917V36.875C4.91748 39.5904 7.11875 41.7917 9.83415 41.7917H49.1675C51.8829 41.7917 54.0842 39.5904 54.0842 36.875V12.2917C54.0842 9.57627 51.8829 7.375 49.1675 7.375Z" stroke="#586279" stroke-width="4" stroke-linecap="round" stroke-linejoin="round"/>
</svg>
