<svg width="59" height="59" viewBox="0 0 59 59" fill="none" xmlns="http://www.w3.org/2000/svg">
<path d="M33.9145 51.1432C34.0718 51.2054 34.2136 51.2366 34.3398 51.2366C34.466 51.2366 34.6078 51.2054 34.7651 51.1432L49.0628 46.7378C49.0136 45.9905 48.7907 45.4521 48.3941 45.1227C47.9942 44.7933 47.5427 44.6286 47.0396 44.6286H35.3748C34.3357 44.6286 33.3933 44.5876 32.5477 44.5057C31.702 44.4237 30.8375 44.2287 29.9541 43.9206L25.7406 42.5636C25.4046 42.4521 25.1628 42.2309 25.0153 41.8998C24.8678 41.5688 24.8498 41.241 24.9613 40.9165C25.0727 40.592 25.2825 40.3544 25.5906 40.2036C25.8987 40.0528 26.2248 40.034 26.569 40.147L30.3794 41.5262C31.1694 41.7949 32.0445 41.967 33.0049 42.0424C33.9637 42.1178 35.1511 42.1604 36.5671 42.1702H37.2062C37.2062 41.4032 37.0645 40.7838 36.7809 40.3118C36.4974 39.8398 36.0934 39.5103 35.569 39.3235L21.4237 34.1315C21.3303 34.1004 21.2434 34.0774 21.1631 34.0627C21.0828 34.0479 20.9968 34.0397 20.905 34.0381H15.7425V45.8577L33.9145 51.1432ZM33.2876 53.572L15.7425 48.439C15.5082 49.4092 15.0124 50.1828 14.2552 50.7597C13.4981 51.3366 12.6704 51.625 11.7723 51.625H9.87939C8.78789 51.625 7.85372 51.2358 7.07689 50.4573C6.29842 49.6805 5.90918 48.7463 5.90918 47.6548V35.5475C5.90918 34.456 6.2976 33.5218 7.07443 32.745C7.8529 31.9665 8.78789 31.5773 9.87939 31.5773H20.8509C21.0804 31.5773 21.3156 31.6035 21.5565 31.656C21.799 31.7068 22.0244 31.7674 22.2325 31.8379L36.4392 37.0422C37.3193 37.3765 38.0765 37.9772 38.7107 38.8441C39.3466 39.7111 39.6646 40.819 39.6646 42.1678H47.0396C48.5195 42.1678 49.6536 42.6308 50.4419 43.5567C51.2302 44.4844 51.6243 45.6603 51.6243 47.0845C51.6243 47.5761 51.4916 47.9908 51.2261 48.3284C50.9606 48.666 50.5714 48.9208 50.0584 49.0929L35.5936 53.5548C35.2363 53.6564 34.8593 53.7154 34.4627 53.7318C34.0661 53.7482 33.6736 53.6941 33.2852 53.5695M8.36751 47.6523C8.36751 48.0948 8.50928 48.4578 8.7928 48.7414C9.07633 49.0249 9.43853 49.1667 9.87939 49.1667H11.7723C12.2132 49.1667 12.5754 49.0487 12.8589 48.8127C13.1424 48.5767 13.2842 48.1899 13.2842 47.6523V34.0381H9.87939C9.43853 34.0381 9.07633 34.1798 8.7928 34.4634C8.50928 34.7469 8.36751 35.1099 8.36751 35.5524V47.6523ZM37.1349 28.6371C36.6646 28.4585 36.2344 28.1913 35.8443 27.8357L29.3199 21.5768C28.2382 20.5361 27.336 19.3725 26.6133 18.086C25.8905 16.7978 25.5291 15.3965 25.5291 13.8822C25.5291 12.0729 26.1617 10.5364 27.427 9.27283C28.6906 8.00761 30.2254 7.375 32.0314 7.375C33.3737 7.375 34.5947 7.73801 35.6943 8.46404C36.794 9.19007 37.7536 10.0718 38.5731 11.1092C39.3925 10.0718 40.3529 9.19007 41.4542 8.46404C42.5523 7.73801 43.7732 7.375 45.1171 7.375C46.9248 7.375 48.4605 8.00761 49.7241 9.27283C50.9876 10.5381 51.6211 12.0737 51.6243 13.8797C51.6243 15.3974 51.2654 16.7994 50.5476 18.086C49.8281 19.3725 48.9276 20.5361 47.8459 21.5768L41.3067 27.8357C40.9183 28.193 40.4881 28.4601 40.0161 28.6371C39.5441 28.8141 39.0639 28.9034 38.5755 28.9051C38.0871 28.9067 37.6077 28.8174 37.1374 28.6371M39.6178 26.0682L45.9358 20.0133C46.8093 19.1709 47.5665 18.2384 48.2073 17.2157C48.8464 16.193 49.166 15.0811 49.166 13.8797C49.166 12.7587 48.7727 11.8041 47.986 11.0158C47.1993 10.2275 46.2431 9.83333 45.1171 9.83333C44.1338 9.83333 43.2521 10.1275 42.472 10.7159C41.6919 11.3026 40.9912 11.995 40.3701 12.7932L39.9596 13.2898C39.6039 13.7372 39.145 13.9609 38.5829 13.9609C38.0207 13.9609 37.5561 13.7372 37.189 13.2898L36.7785 12.7932C36.1557 11.995 35.4551 11.3026 34.6766 10.7159C33.8965 10.1275 33.0148 9.83333 32.0314 9.83333C30.9088 9.83333 29.9541 10.2267 29.1675 11.0133C28.3792 11.8033 27.985 12.7587 27.985 13.8797C27.985 15.0811 28.3046 16.193 28.9438 17.2157C29.5829 18.2384 30.3393 19.1709 31.2128 20.0133L37.5332 26.0682C37.8167 26.3517 38.1633 26.4935 38.5731 26.4935C38.9828 26.4935 39.3294 26.3517 39.6129 26.0682" fill="#586279"/>
</svg>
