<?xml version="1.0" encoding="utf-8"?>
<!-- Generator: Adobe Illustrator 25.2.3, SVG Export Plug-In . SVG Version: 6.00 Build 0)  -->
<svg version="1.1" id="Layer_1" xmlns="http://www.w3.org/2000/svg" xmlns:xlink="http://www.w3.org/1999/xlink" x="0px" y="0px"
	 viewBox="0 0 171.66 100.43" style="enable-background:new 0 0 171.66 100.43;" xml:space="preserve">
<style type="text/css">
	.st0{fill-rule:evenodd;clip-rule:evenodd;fill:#8B7836;}
	.st1{fill:#8B7736;}
	.st2{fill:#005844;}
	.st3{fill:#AA8A00;}
	.st4{fill:#00B5E2;}
	.st5{fill:#EF3340;}
	.st6{fill:#509E2F;}
	.st7{fill-rule:evenodd;clip-rule:evenodd;fill:#FFFFFF;}
	.st8{fill:#FFC600;}
</style>
<g id="Layer_2_1_">
	<g id="Layer_1-2">
		<path class="st0" d="M72.76,64.81l-1.52,0.36L72.69,64l0.07,0.84V64.81z M96,30.54v-2.13l2.23,1.21l-0.72,2.43L96,30.54z
			 M96,27.82c0.58,0.46,1.21,0.85,1.87,1.18c2.72,1.44,6,3.32,8.67,4.6c0.11-0.46-0.06-0.94-0.43-1.22c-1.81-1-3.64-1.9-5.4-2.86
			c-0.7-0.38-3.5-1.88-4.32-2.49c0,0,0-0.06,0,0c2.79,1.42,7.72,3.61,10.43,5.36c0.15-0.34,0-0.73-0.34-0.88
			c-2.03-1.45-4.2-2.69-6.48-3.7c-0.76-0.34-2.72-1.2-3.49-1.68c-0.06,0,0,0,0.06,0c3.24,0.98,6.33,2.4,9.18,4.24l1.2,0.84l0.15-1
			l-0.67-0.59c-3.1-2.68-6.56-4.33-9.61-4.41h-0.13c-0.18,0-0.13-0.05,0.08-0.06c1.46-0.08,2.92,0.06,4.34,0.42l0.67,0.19
			c1.75,0.53,3.41,1.3,4.94,2.29c0.22,0.15,0.43,0.27,0.64,0.44l8.92-10l-0.44-0.46l0.54-0.65l0,0l-0.33-0.2
			c-0.28,0.1-6.08,6.83-8.6,9.68c-0.41-0.2-0.81-0.32-1.22-0.48c-4.07-2.19-9.35-1.33-10.19-1.18v2.62L96,27.82z M96,25v-0.15
			l4.68-4.68c1.29-1.23,2.59-2.48,3.86-3.75c0.4-0.42,0.84-0.81,1.31-1.14l0,0c0.77-0.32,1.6-0.46,2.43-0.4
			c0.87-0.02,1.74,0.01,2.61,0.1c1.83,0.16,3.62,0.68,5.25,1.53c-3,3.45-5.4,6.15-8.8,9.82C103.86,24.5,99.81,24.02,96,25z
			 M95.77,24.62h-0.15c0.32-1.23,0.49-2.5,0.5-3.77l-0.45,0.13c0.01,1.22-0.08,2.44-0.29,3.64h-2.61c-0.45-0.58-0.85-1.2-1.17-1.86
			c-0.08-0.16-0.17-0.32-0.26-0.48l8.81-2.63l-0.91-10.9c1.58-1.41,3.14-2.77,4.88-4.31l0,0c0.85,1.63,1.37,3.42,1.53,5.25
			c0.09,0.87,0.12,1.74,0.1,2.61c0.06,0.83-0.07,1.66-0.39,2.43c-0.34,0.46-0.73,0.89-1.15,1.27c-1.27,1.27-2.51,2.57-3.75,3.85
			l-4.68,4.69L95.77,24.62z M92.17,24.62L91,22.35l-2.43,0.72l1.51,1.51L92.17,24.62z M88.12,22.69l-1.85-1.89
			c0.48-0.7,3.61-5,8-6.37c0.4-0.17,0.77-0.37,1.2-0.52c-0.23-3.8-0.89-12.66-0.76-12.93l0.36-0.09l0.09,0.84h0.64l0.76,13.38
			c-0.27,0-0.5,0.1-0.76,0.14c-1.79,0.38-3.51,1.01-5.12,1.88c-0.2,0.11-0.41,0.22-0.6,0.34c-1.26,0.74-2.4,1.67-3.37,2.77
			c-0.14,0.16-0.14,0.22,0,0.1l0.1-0.1c2.21-2.09,5.82-3.38,9.91-3.67l0.89-0.06l0.59,0.81l-1.44,0.26
			c-3.31,0.71-6.51,1.89-9.49,3.49c-0.06,0-0.09,0.07,0,0.05c0.88-0.21,2.88-1,3.65-1.28c2.32-0.91,4.73-1.58,7.19-2
			c0.4-0.06,0.56-0.06,0.86,0.39c-3.15,0.68-8.19,2.61-11.16,3.58l0,0c1-0.15,4-1.07,4.81-1.3c1.93-0.56,3.83-1.24,5.84-1.79
			c0.47-0.06,0.93,0.16,1.17,0.56c-2.81,1-6.44,2-9.38,2.87c-0.69,0.25-1.41,0.41-2.14,0.49L88.12,22.69z M86.12,20.69
			c2.01-3.4,5.22-5.92,9-7.08c-0.19-5-0.44-8.58-0.72-13.16C92.63,0.98,90.98,1.84,89.54,3c-0.67,0.56-1.31,1.16-1.91,1.8
			c-0.63,0.54-1.12,1.23-1.44,2c-0.1,0.57-0.14,1.15-0.12,1.73c0,1.81,0,3.61-0.07,5.39l0,0v6.61l0.1,0.11L86.12,20.69z
			 M85.68,20.58l-0.1,0.11c-2.01-3.4-5.22-5.92-9-7.08c0.19-5,0.44-8.58,0.72-13.16l0,0c1.76,0.53,3.39,1.4,4.82,2.55
			c0.66,0.56,1.29,1.16,1.88,1.8c0.63,0.54,1.12,1.23,1.44,2c0.1,0.57,0.14,1.15,0.12,1.73c0,1.81,0,3.6,0.07,5.38v6.62L85.68,20.58
			z M85.41,20.86c-0.48-0.7-3.61-5-8-6.37c-0.4-0.17-0.77-0.37-1.2-0.52c0.24-3.8,0.89-12.66,0.76-12.93l-0.42-0.15l-0.09,0.84
			h-0.64l-0.76,13.38c0.27,0,0.51,0.1,0.76,0.14c1.79,0.38,3.51,1.01,5.12,1.88c0.2,0.11,0.41,0.22,0.6,0.34
			c1.26,0.74,2.4,1.67,3.37,2.77c0.14,0.16,0.14,0.22,0,0.1l-0.1-0.1c-2.21-2.09-5.82-3.38-9.91-3.67L74,16.52l-0.59,0.81l1.44,0.26
			c3.31,0.71,6.51,1.89,9.49,3.49c0.07,0,0.09,0.07,0,0.05c-0.88-0.21-2.88-1-3.65-1.28c-2.32-0.91-4.73-1.58-7.19-2
			c-0.4-0.06-0.56-0.06-0.86,0.39c3.15,0.68,8.19,2.61,11.16,3.58l0,0c-1-0.15-4-1.07-4.81-1.3c-1.93-0.56-3.83-1.24-5.84-1.79
			c-0.47-0.06-0.93,0.16-1.17,0.56c2.81,1,6.44,2,9.39,2.87c0.69,0.25,1.4,0.41,2.13,0.49l1.86-1.85L85.41,20.86z M83.14,23.13
			l-1.51,1.51h-2.15l1.21-2.23l2.43,0.72H83.14z M78.91,24.64h-2.64c-0.2-1.22-0.29-2.46-0.27-3.7l4.34,1.3
			c-0.09,0.16-0.18,0.32-0.26,0.48c-0.32,0.66-0.72,1.28-1.17,1.86V24.64z M76.05,24.64H75.9l-4.7-4.74
			c-1.23-1.27-2.48-2.57-3.75-3.9c-0.43-0.39-0.81-0.83-1.14-1.31c-0.32-0.77-0.46-1.6-0.4-2.43c-0.02-0.86,0.01-1.72,0.09-2.57l0,0
			c0.16-1.83,0.68-3.62,1.53-5.25c1.75,1.54,3.3,2.9,4.88,4.31L71.5,19.61l4,1.2c0.01,1.27,0.18,2.54,0.5,3.77L76.05,24.64z
			 M75.67,24.87V25c-3.81-0.98-7.86-0.5-11.34,1.33c-3.41-3.67-5.76-6.37-8.8-9.82c1.63-0.85,3.42-1.37,5.25-1.53l0,0
			c0.87-0.09,1.74-0.12,2.61-0.1c0.83-0.06,1.66,0.08,2.43,0.4c0.47,0.33,0.91,0.72,1.31,1.14c1.27,1.27,2.57,2.51,3.85,3.75
			l4.69,4.68V24.87z M75.67,25.26v2.62c-0.59,0.44-1.22,0.81-1.88,1.12c-2.72,1.44-6,3.32-8.67,4.6c-0.11-0.46,0.06-0.94,0.43-1.22
			c1.81-1,3.64-1.9,5.4-2.86c0.7-0.38,3.5-1.88,4.32-2.49c0,0,0-0.06,0,0c-2.79,1.42-7.72,3.61-10.43,5.36
			c-0.11-0.53,0-0.64,0.34-0.88c2.04-1.43,4.22-2.65,6.51-3.65c0.76-0.34,2.72-1.2,3.49-1.68c0.06,0,0,0-0.06,0
			c-3.24,0.98-6.33,2.4-9.18,4.24l-1.19,0.84l-0.16-1l0.67-0.59c3.1-2.68,6.56-4.33,9.61-4.41H75c0.18,0,0.13-0.05-0.08-0.06
			c-1.46-0.09-2.92,0.05-4.34,0.42l-0.67,0.19c-1.73,0.51-3.39,1.27-4.91,2.24c-0.22,0.15-0.43,0.27-0.64,0.44l-8.92-10l0,0
			l0.44-0.46l-0.54-0.65l0.33-0.21c0.28,0.11,6.08,6.84,8.6,9.69c0.41-0.2,0.81-0.32,1.22-0.48c4.07-2.19,9.35-1.33,10.19-1.18
			L75.67,25.26z M75.67,28.47l-2.23,1.21l0.72,2.43l1.51-1.51v-2.19V28.47z M73.74,32.53c-0.08-0.73-0.24-1.45-0.49-2.14l0,0
			l-0.15-0.53l-4,2.16c0.86,0.87,1.79,1.66,2.78,2.36l1.85-1.85L73.74,32.53z M71.74,34.53c-1.09-0.64-2.1-1.42-3-2.31l-3.69,2
			l-7-8.33c-2.12,0.12-4.18,0.26-6.5,0.4c0.55,1.76,1.44,3.39,2.62,4.8c0.53,0.67,1.1,1.31,1.7,1.91l0,0c0.54,0.63,1.23,1.12,2,1.44
			c0.57,0.1,1.15,0.14,1.73,0.12c1.81,0,3.61,0,5.39,0.07h6.61l0.11-0.1L71.74,34.53z M71.63,34.97l0.11,0.1
			c-1.09,0.64-2.1,1.42-3,2.31l-3.69-2L56.84,45l-4-0.23l0,0v-0.64L52,44.05l0.09-0.37c0.14-0.07,2.72,0.08,5.67,0.28L58,43.67
			c-2.12-0.12-4.18-0.26-6.5-0.4c0.55-1.76,1.44-3.39,2.62-4.8c0.56-0.67,1.16-1.31,1.79-1.91c0.54-0.63,1.23-1.12,2-1.44
			c0.55-0.1,1.12-0.14,1.68-0.12c1.8,0,3.6,0,5.38-0.07L71.63,34.97z M71.91,35.24c-1,0.7-1.93,1.5-2.78,2.37l4,2.15l0.15-0.52
			c0.25-0.69,0.41-1.41,0.49-2.14l-1.9-1.9L71.91,35.24z M74.18,37.51L75.65,39v2.13l-2.23-1.23l0.72-2.43L74.18,37.51z
			 M75.69,41.74c-0.58-0.45-1.2-0.85-1.86-1.17c-2.72-1.44-6-3.31-8.67-4.6c-0.11,0.46,0.06,0.94,0.43,1.22
			c1.81,1,3.64,1.9,5.4,2.86c0.7,0.39,3.5,1.88,4.32,2.49c0,0,0,0.06,0,0c-2.79-1.41-7.72-3.61-10.43-5.36
			c-0.11,0.53,0,0.64,0.34,0.88c2.04,1.43,4.22,2.65,6.51,3.65c0.76,0.34,2.72,1.2,3.49,1.68c0.06,0,0,0-0.06,0
			c-3.24-0.98-6.33-2.42-9.18-4.25l-1.2-0.84l-0.15,1l0.67,0.59c3.1,2.69,6.56,4.33,9.61,4.41H75c0.18,0,0.13,0-0.08,0.06
			C73.46,44.47,72,44.35,70.58,44l-0.67-0.19c-1.74-0.54-3.39-1.33-4.91-2.34c-0.22-0.15-0.43-0.27-0.64-0.44L55.41,51l0.44,0.47
			c0,0-0.52,0.61-0.54,0.65l0,0l0.33,0.2c0.28-0.1,6.08-6.84,8.6-9.69c0.41,0.2,0.81,0.32,1.22,0.48c4.07,2.19,9.35,1.33,10.19,1.18
			V41.7L75.69,41.74z M75.69,44.6c-3.81,0.98-7.86,0.51-11.34-1.33c-3.41,3.67-5.76,6.38-8.8,9.82c1.63,0.85,3.42,1.37,5.25,1.53
			c0.87,0.09,1.74,0.12,2.61,0.1c0.83,0.06,1.66-0.08,2.43-0.4l0,0c0.47-0.33,0.91-0.72,1.31-1.14c1.27-1.27,2.57-2.52,3.86-3.75
			l4.68-4.68C75.69,44.75,75.69,44.6,75.69,44.6z M75.92,44.99l-4.72,4.64c-1.24,1.28-2.48,2.58-3.75,3.85
			c-0.42,0.4-0.81,0.84-1.14,1.31c-0.32,0.77-0.46,1.6-0.4,2.43c-0.02,0.87,0.01,1.74,0.1,2.61c0.16,1.83,0.68,3.62,1.53,5.25l0,0
			c1.74-1.54,3.3-2.9,4.88-4.31l-0.91-10.86l4-1.2c0.01-1.25,0.17-2.5,0.49-3.71L75.92,44.99z M76.31,44.99h2.62
			c0.46,0.57,0.85,1.19,1.17,1.85c0.08,0.16,0.17,0.32,0.26,0.48L76,48.58c-0.02-1.2,0.07-2.4,0.27-3.58L76.31,44.99z M79.52,44.99
			l1.21,2.22l2.43-0.72L81.61,45L79.52,44.99z M83.52,46.91c-0.73,0.08-1.45,0.24-2.14,0.49c-2.94,0.9-6.57,1.88-9.38,2.87
			c0.24,0.4,0.7,0.62,1.17,0.56c2-0.55,3.91-1.23,5.84-1.79c0.76-0.23,3.8-1.15,4.81-1.3c0.07,0,0.08,0,0,0c-3,1-8,2.9-11.16,3.59
			c0.3,0.44,0.46,0.44,0.86,0.38c2.46-0.42,4.87-1.09,7.19-2c0.77-0.29,2.77-1.07,3.65-1.28c0.06,0,0,0,0,0
			c-2.98,1.61-6.18,2.78-9.49,3.49l-1.44,0.26L74,53l0.89-0.06c4.09-0.29,7.7-1.58,9.91-3.67l0.1-0.1c0.12-0.12,0.12-0.06,0,0.1
			c-0.97,1.08-2.1,2-3.36,2.73l-0.6,0.34c-1.61,0.87-3.33,1.5-5.12,1.88c-0.26,0-0.49,0.11-0.76,0.14l0.76,13.38h0.64
			c0,0,0.07,0.81,0.08,0.84l0.37-0.08c0.13-0.28-0.53-9.14-0.76-12.94c0.43-0.15,0.8-0.35,1.2-0.52c4.43-1.33,7.56-5.67,8-6.37
			l-1.86-1.85L83.52,46.91z M85.52,48.91l0.1,0.11v6.61l0,0c0,1.78-0.07,3.58-0.07,5.39c0.02,0.58-0.02,1.16-0.12,1.73
			c-0.32,0.77-0.81,1.45-1.44,2c-0.6,0.63-1.24,1.22-1.91,1.78c-1.41,1.18-3.04,2.07-4.8,2.62C77,64.55,76.79,61,76.6,56
			c3.78-1.16,6.99-3.68,9-7.08L85.52,48.91z M86,49l0.1-0.11c2.01,3.4,5.22,5.92,9,7.08c-0.19,5-0.44,8.58-0.72,13.16l0,0
			c-1.76-0.55-3.39-1.44-4.8-2.62c-0.67-0.56-1.31-1.15-1.91-1.78c-0.63-0.55-1.12-1.23-1.44-2c-0.11-0.57-0.17-1.15-0.16-1.73
			c0-1.8,0-3.6-0.07-5.38V49z M86.27,48.72c0.49,0.7,3.61,5,8,6.37c0.4,0.17,0.77,0.37,1.2,0.52c-0.24,3.8-0.89,12.66-0.76,12.94
			l0.36,0.08l0.09-0.84h0.64l0.8-13.39c-0.27,0-0.5-0.1-0.76-0.14c-1.79-0.38-3.51-1.01-5.12-1.88c-0.2-0.11-0.41-0.22-0.6-0.34
			c-1.26-0.74-2.4-1.67-3.37-2.77c-0.14-0.16-0.14-0.22,0-0.1l0.1,0.1c2.21,2.09,5.82,3.38,9.91,3.67L97.65,53l0.59-0.81
			c-1-0.17-1.15-0.21-1.44-0.25c-3.31-0.72-6.51-1.89-9.49-3.5c-0.07,0-0.09-0.07,0,0c0.88,0.21,2.88,1,3.65,1.28
			c2.32,0.91,4.73,1.58,7.19,2c0.4,0.06,0.56,0.06,0.86-0.38c-3.15-0.69-8.19-2.62-11.16-3.59l0,0c1,0.15,4,1.08,4.81,1.3
			c1.93,0.56,3.83,1.24,5.84,1.79c0.47,0.06,0.93-0.16,1.17-0.56c-2.81-1-6.44-2-9.39-2.87c-0.69-0.25-1.4-0.41-2.13-0.49
			l-1.86,1.85L86.27,48.72z M88.54,46.45L90.05,45h2.13L91,47.17l-2.43-0.72L88.54,46.45z M92.77,45h2.62
			c0.21,1.2,0.3,2.41,0.29,3.63l-4.34-1.3c0.09-0.16,0.18-0.32,0.26-0.48C91.92,46.19,92.31,45.57,92.77,45z M99.21,61.19
			c2.22,2,4.15,3.66,4.21,3.82l-0.21,0.32l-0.64-0.54l-0.47,0.44l-3-2.68l0.12-1.36H99.21z M99.21,60.82l0.91-10.86l-4-1.2
			c-0.01-1.27-0.18-2.53-0.5-3.76h0.15l4.68,4.67c1.23,1.29,2.48,2.59,3.75,3.86c0.42,0.4,0.81,0.84,1.14,1.31
			c0.32,0.77,0.46,1.6,0.4,2.43c0.02,0.87-0.01,1.74-0.1,2.61l0,0c-0.16,1.83-0.68,3.62-1.53,5.25c-1.74-1.54-3.3-2.9-4.88-4.31
			H99.21z M96,44.71v-0.15c3.81,0.98,7.86,0.51,11.34-1.33c3.4,3.67,5.76,6.37,8.8,9.82c-1.63,0.86-3.42,1.38-5.25,1.53l0,0
			c-0.87,0.09-1.74,0.12-2.61,0.1c-0.83,0.06-1.66-0.07-2.43-0.39c-0.47-0.34-0.91-0.73-1.31-1.15c-1.27-1.27-2.57-2.51-3.85-3.75
			L96,44.71z M96,44.32V41.7c0.58-0.45,1.2-0.85,1.86-1.17c2.72-1.44,6-3.31,8.67-4.6c0.11,0.46-0.06,0.94-0.43,1.22
			c-1.81,1-3.64,1.9-5.4,2.87c-0.7,0.38-3.5,1.87-4.32,2.48c0,0,0,0.06,0,0c2.79-1.41,7.72-3.61,10.43-5.36
			c0.14,0.34-0.01,0.73-0.34,0.89c-2.03,1.43-4.2,2.67-6.47,3.69c-1.19,0.5-2.36,1.05-3.49,1.67c-0.06,0,0,0,0.06,0
			c3.24-0.98,6.33-2.4,9.18-4.24l1.19-0.84l0.16,1l-0.67,0.59c-3.1,2.69-6.56,4.33-9.61,4.41h-0.13c-0.18,0-0.13,0,0.08,0.06
			c1.46,0.09,2.93-0.05,4.34-0.42l0.67-0.19c1.75-0.53,3.41-1.3,4.94-2.29c0.22-0.15,0.43-0.27,0.64-0.44l8.92,10l0,0l-0.44,0.47
			c0,0,0.52,0.61,0.54,0.65l-0.33,0.2c-0.28-0.1-6.08-6.84-8.6-9.69c-0.41,0.2-0.81,0.32-1.22,0.48c-4.07,2.19-9.35,1.33-10.19,1.18
			L96,44.32z M96,41.11l2.23-1.21l-0.72-2.43L96,39v2.13V41.11z M97.93,37.11c0.08,0.73,0.24,1.45,0.49,2.14l0,0l0.15,0.52l4-2.15
			c-0.86-0.87-1.79-1.66-2.78-2.37l-1.85,1.86H97.93z M99.93,35.11c1.09,0.64,2.1,1.42,3,2.31l3.69-2l8.2,9.58l4-0.23v-0.64
			l0.84-0.08l-0.09-0.37c-0.14-0.07-2.72,0.08-5.67,0.28l0,0l-0.24-0.29c2.12-0.12,4.18-0.26,6.5-0.4c-0.55-1.76-1.44-3.39-2.62-4.8
			c-0.56-0.67-1.15-1.31-1.79-1.91c-0.54-0.63-1.23-1.12-2-1.44c-0.57-0.1-1.15-0.14-1.73-0.12c-1.81,0-3.61,0-5.39-0.07h-6.61
			L100,35L99.93,35.11z M100.04,34.68l-0.11-0.11c1.09-0.64,2.1-1.42,3-2.31l3.69,2l7-8.33c2.12,0.12,4.18,0.26,6.5,0.4l0,0
			c-0.55,1.76-1.44,3.39-2.62,4.8c-0.53,0.66-1.1,1.28-1.71,1.87c-0.55,0.63-1.23,1.13-2,1.45c-0.57,0.09-1.15,0.13-1.73,0.11
			c-1.8,0-3.6,0-5.38,0.07L100.04,34.68z M99.76,34.4c1.01-0.72,1.95-1.52,2.81-2.4l-4-2.16l-0.15,0.53
			c-0.25,0.69-0.41,1.41-0.49,2.14l1.85,1.85L99.76,34.4z M95.11,38.7L99,34.76l-3.86-3.86v-5.45h-5.45l-3.86-3.86L82,25.45h-5.48
			v5.45l-3.86,3.86l3.86,3.86v5.46H82l3.86,3.85l3.86-3.85h5.45v-5.46L95.11,38.7z M72.78,65.07v0.11c0.23,0.02,0.46,0.02,0.69,0
			c0.43,0.61,0.82,1.25,1.16,1.92h0.83c0,0.32,0.07,1,0.07,1h0.68c0.01,0.3,0.05,0.6,0.09,0.89l0.7-0.1
			c0.02,0.22,0.05,0.44,0.1,0.65c1.84-0.49,3.54-1.38,5-2.6c1.34-1.07,2.53-2.32,3.54-3.71c0.06-0.06,0.12-0.12,0.17-0.18
			c0.05,0.06,0.11,0.12,0.17,0.18c1.01,1.39,2.2,2.64,3.54,3.71c1.46,1.22,3.16,2.11,5,2.6c0.05-0.21,0.08-0.42,0.1-0.64l0.7,0.09
			c0.04-0.29,0.08-0.59,0.09-0.89h0.68c0,0,0.07-0.64,0.07-1H97c0.35-0.66,0.74-1.31,1.17-1.92c0.23,0.02,0.46,0.02,0.69,0v-0.11
			c0.65,0.12,1.3,0.28,1.93,0.49l0.58-0.59c0.23,0.22,0.48,0.43,0.73,0.63l0.48-0.48c0.22,0.2,0.45,0.39,0.69,0.56l0.43-0.56
			c0.17,0.14,0.34,0.27,0.52,0.39c0.96-1.65,1.54-3.48,1.7-5.38c0.2-1.71,0.16-3.43-0.11-5.13c0,0,0-0.16,0-0.25h0.25
			c1.7,0.27,3.42,0.31,5.13,0.11c1.9-0.16,3.74-0.74,5.38-1.7c-0.12-0.18-0.25-0.35-0.39-0.52l0.56-0.43
			c-0.17-0.24-0.36-0.47-0.56-0.69l0.48-0.48c0,0-0.4-0.5-0.63-0.73l0.58-0.58c-0.22-0.71-0.4-1.44-0.53-2.18
			c0.17-0.16,0.33-0.33,0.47-0.51l-0.78-0.92l1.87-0.18l-1.33,0.82l0.16,0.19c0.55-0.37,1.12-0.7,1.71-1v-0.83
			c0.33,0,0.67-0.03,1-0.07v-0.68c0.3-0.01,0.6-0.05,0.89-0.09l-0.1-0.7c0.22-0.02,0.44-0.05,0.65-0.1c-0.49-1.84-1.38-3.54-2.6-5
			c-1.07-1.35-2.32-2.54-3.71-3.55l-0.18-0.17c0.06-0.05,0.12-0.11,0.18-0.17c1.39-1,2.63-2.2,3.69-3.54c1.22-1.46,2.11-3.16,2.6-5
			c-0.21-0.05-0.43-0.08-0.65-0.1l0.1-0.7c-0.29-0.04-0.59-0.08-0.89-0.09v-0.68c0,0-0.64-0.07-1-0.07v-0.82
			c-0.59-0.3-1.17-0.63-1.72-1l0.08-0.09c-0.15-0.18-0.3-0.35-0.47-0.51c0.13-0.73,0.31-1.46,0.53-2.17L116,19.2
			c0.22-0.23,0.43-0.48,0.63-0.73l-0.48-0.48c0.2-0.22,0.39-0.45,0.56-0.69l-0.56-0.42c0.11-0.18,0.31-0.36,0.39-0.53
			c-1.65-0.95-3.48-1.53-5.38-1.7c-1.71-0.2-3.43-0.16-5.13,0.11h-0.25c0-0.09,0-0.25,0-0.25c0.27-1.69,0.31-3.42,0.11-5.12
			c-0.14-1.9-0.7-3.74-1.65-5.39c-0.18,0.12-0.35,0.25-0.52,0.39l-0.43-0.56c-0.24,0.17-0.47,0.36-0.69,0.56l-0.48-0.48
			c0,0-0.5,0.4-0.73,0.63L100.81,4c-0.63,0.2-1.28,0.36-1.93,0.49V4.34c-0.23-0.02-0.46-0.02-0.69,0C97.75,3.72,97.35,3.07,97,2.4
			h-0.83c0-0.33-0.07-1-0.07-1h-0.68c0-0.38,0-0.6-0.09-0.89l-0.7,0.1c-0.02-0.22-0.05-0.44-0.1-0.65c-1.84,0.49-3.54,1.38-5,2.6
			C88.19,3.64,87,4.9,86,6.31l-0.17,0.18c-0.05-0.06-0.11-0.12-0.17-0.18c-1.01-1.39-2.2-2.64-3.54-3.71c-1.46-1.22-3.16-2.11-5-2.6
			c-0.05,0.21-0.08,0.43-0.1,0.65l-0.7-0.1c0,0.29-0.06,0.51-0.09,0.89h-0.68c0,0-0.07,0.64-0.07,1h-0.82
			c-0.35,0.66-0.74,1.3-1.17,1.92c-0.23-0.02-0.46-0.02-0.69,0v0.12C72.14,4.35,71.49,4.19,70.85,4l-0.58,0.58
			c-0.23-0.22-0.48-0.43-0.73-0.63l-0.48,0.48c-0.22-0.2-0.45-0.39-0.69-0.56l-0.43,0.56C67.78,4.27,67.6,4.13,67.42,4
			c-0.96,1.64-1.54,3.48-1.7,5.38c-0.2,1.7-0.16,3.43,0.11,5.12c0,0,0,0.16,0,0.25h-0.25c-1.7-0.27-3.42-0.31-5.13-0.11
			c-1.9,0.17-3.73,0.75-5.38,1.7c0.12,0.18,0.25,0.35,0.39,0.52l-0.56,0.43c0.17,0.24,0.36,0.47,0.56,0.69l-0.48,0.48
			c0.2,0.25,0.41,0.5,0.63,0.73l-0.58,0.58c0.23,0.73,0.41,1.48,0.54,2.23c-0.17,0.16-0.32,0.33-0.47,0.51l0.08,0.09
			c-0.55,0.36-1.12,0.7-1.71,1v0.82c-0.33,0-1,0.07-1,0.07v0.68c-0.3,0.01-0.6,0.05-0.89,0.09l0.1,0.7
			c-0.22,0.02-0.44,0.05-0.65,0.1c0.49,1.84,1.38,3.54,2.6,5c1.07,1.35,2.32,2.54,3.71,3.54c0.06,0.06,0.12,0.12,0.18,0.17
			l-0.18,0.17c-1.39,1.01-2.64,2.2-3.71,3.54c-1.22,1.46-2.11,3.16-2.6,5c0.21,0.05,0.43,0.08,0.65,0.1l-0.1,0.7
			c0.29,0.04,0.59,0.08,0.89,0.09v0.68c0,0,0.64,0.07,1,0.07V46c0.59,0.3,1.16,0.63,1.71,1l-0.08,0.09c0.15,0.18,0.3,0.35,0.47,0.51
			c-0.15,0.72-0.34,1.44-0.57,2.14l0.58,0.58c-0.23,0.23-0.63,0.73-0.63,0.73l0.48,0.48c-0.2,0.22-0.39,0.45-0.56,0.69l0.56,0.43
			c-0.14,0.17-0.27,0.34-0.39,0.52c1.65,0.96,3.48,1.54,5.38,1.7c1.71,0.2,3.43,0.16,5.13-0.11h0.25c0,0.09,0,0.25,0,0.25
			c-0.27,1.7-0.31,3.42-0.11,5.13c0.16,1.9,0.74,3.73,1.7,5.38c0.18-0.12,0.35-0.25,0.52-0.39l0.43,0.56
			c0.24-0.17,0.47-0.36,0.69-0.56l0.48,0.48c0.25-0.2,0.5-0.41,0.73-0.63l0.58,0.59c0.63-0.21,1.28-0.37,1.93-0.49L72.78,65.07z
			 M114.78,24.53l4,0.23v0.63c0,0,0.81,0.07,0.84,0.09l-0.08,0.37c-0.15,0.06-2.72-0.09-5.68-0.28l0.88-1L114.78,24.53z
			 M115.48,23.69c1.39,0.12,2.33,0.21,2.36,0.25v0.44c0,0-1.17,0-2.78-0.15l0.45-0.54H115.48z M115.74,23.4l0.54-0.64l0,0
			c0.52,0.31,1.28,0.77,1.33,0.82L115.74,23.4z M115.74,22.27L115.74,22.27l0.21,0.23l-6.76,7.91l0,0
			c-0.74,0.87-1.47,1.75-2.23,2.61c0.09-0.43,0.13-1.06,0.24-1.59l0.2-1.08c0.28-0.36,6.59-7.33,8.85-10.17
			C116.25,20.29,115.74,22.28,115.74,22.27L115.74,22.27z M116.15,19.75L116.15,19.75c0,0.17-6.56,7.71-8.82,10.29
			c-1.79-1.56-3.75-2.9-5.86-4c2.09,0.67,4.05,1.69,5.81,3c2.78-2.87,8.37-9.57,8.54-9.58L116.15,19.75z M99.09,7l0.12,1.36
			c2.22-2,4.15-3.66,4.21-3.81l-0.21-0.32l-0.64,0.53l-0.47-0.44L99.09,7z M99.09,6.62c1.22-1.06,2.07-1.8,2.07-1.86l-0.28-0.33l0,0
			C100.22,4.89,99.59,5.4,99,5.94l0.06,0.7L99.09,6.62z M100.45,4.34c-0.07,0-0.92,0.21-1.52,0.36L99,5.53
			C99.54,5.07,100,4.66,100.45,4.34z M98.17,4.77h0.31c0.36,4.6,0.79,9.21,1.07,13.79c-0.23-0.37-0.65-0.84-1-1.29L98,16.39
			C97.89,15.93,97.43,6.55,97,3c0.07,0.07,1.12,1.84,1.12,1.84L98.17,4.77z M96.24,2.77L96.24,2.77h0.44
			c0.14,0.09,0.82,10.09,1,13.52c-2.38,0.15-4.73,0.59-7,1.31c1.95-1.01,4.06-1.68,6.23-2c-0.06-4-0.84-12.68-0.73-12.81L96.24,2.77
			z M75,2.71c-0.14,0.09-0.82,10.09-1,13.52c2.38,0.15,4.73,0.59,7,1.31c-1.95-1.01-4.06-1.68-6.23-2c0.06-4,0.84-12.68,0.73-12.81
			h-0.44L75,2.71z M73.21,4.8h0.31c0,0,1.05-1.8,1.13-1.8c-0.42,3.6-0.88,13-0.94,13.44l-0.62,0.91c-0.3,0.45-0.72,0.92-1,1.29
			c0.28-4.58,0.71-9.19,1.07-13.79L73.21,4.8z M72.76,4.71L72.76,4.71l-0.07,0.84c-0.54-0.46-1-0.87-1.45-1.2
			C71.24,4.35,72.76,4.71,72.76,4.71z M72.6,6.64c-1.22-1.06-2.07-1.8-2.07-1.86l0.28-0.33c0.65,0.46,1.27,0.96,1.85,1.49
			C72.66,5.94,72.6,6.64,72.6,6.64z M72.6,7.02l-0.12,1.36c-2.22-2-4.15-3.66-4.21-3.81l0.21-0.32l0,0l0.64,0.53l0.47-0.44l3,2.68
			L72.6,7.02z M55.85,19.46l-0.33,0.29c0,0.17,6.56,7.71,8.82,10.29c1.79-1.56,3.75-2.9,5.86-4c-2.09,0.67-4.05,1.69-5.81,3
			C61.61,26.17,56.02,19.47,55.85,19.46z M55.42,20.17c0,0.11,0.51,2.1,0.51,2.1l-0.21,0.23l6.76,7.91l0,0
			c0.74,0.87,1.47,1.75,2.23,2.61c-0.09-0.43-0.13-1.06-0.24-1.59l-0.2-1.08C64,30,57.68,23,55.42,20.17z M56.14,23.69
			c-1.39,0.12-2.33,0.21-2.36,0.25v0.44c0,0,1.17,0,2.78-0.15l-0.45-0.54H56.14z M55.88,23.4l-0.54-0.64
			c-0.52,0.31-1.28,0.77-1.33,0.82C54.01,23.58,55.88,23.4,55.88,23.4z M52.8,25.4c0,0-0.81,0.07-0.84,0.09l0.09,0.37
			c0.14,0.06,2.72-0.09,5.67-0.28l-0.88-1.05l-4,0.23v0.64H52.8z M53.8,45.15L53.8,45.15c0,0,1.17,0,2.78,0.15l-0.45,0.54
			c-1.39-0.12-2.33-0.21-2.36-0.25v-0.44L53.8,45.15z M55.33,46.78L55.33,46.78L54,46l1.87,0.18l-0.54,0.64L55.33,46.78z
			 M55.92,47.26c0,0-0.5,2-0.51,2.1c2.26-2.84,8.57-9.8,8.85-10.17l0.2-1.08c0.11-0.53,0.15-1.16,0.24-1.59
			c-0.76,0.86-1.49,1.74-2.23,2.61l0,0L55.72,47l0.21,0.23L55.92,47.26z M55.51,49.79l0.33,0.28c0.17,0,5.76-6.71,8.54-9.57
			c1.76,1.31,3.72,2.33,5.81,3c-2.11-1.09-4.07-2.44-5.86-4C62.07,42.08,55.47,49.63,55.51,49.79L55.51,49.79z M72.51,62.51
			l-0.12-1.36c-2.22,2-4.15,3.66-4.21,3.81l0.2,0.33l0.65-0.54l0.47,0.44l3-2.68L72.51,62.51z M72.51,62.89
			c-0.72,0.59-1.41,1.21-2.07,1.87l0.28,0.32l0,0c0.65-0.45,1.27-0.95,1.85-1.49L72.51,62.89z M73.43,64.75c0,0,1,1.76,1.12,1.84
			c-0.41-3.6-0.87-13-0.93-13.45L73,52.24c-0.3-0.45-0.72-0.93-1-1.3c0.28,4.59,0.71,9.2,1.07,13.79h0.31L73.43,64.75z M75.36,66.75
			L75.36,66.75h-0.44c-0.14-0.09-0.82-10.09-1-13.52C76.32,53.12,78.7,52.7,81,52c-1.95,1.01-4.06,1.68-6.23,2
			c0.06,4,0.84,12.68,0.73,12.81L75.36,66.75z M96.56,66.75c0.14-0.09,0.82-10.09,1-13.52c-2.38-0.15-4.73-0.59-7-1.31
			c1.95,1.01,4.06,1.68,6.23,2c-0.06,4-0.84,12.68-0.73,12.81h0.44L96.56,66.75z M98.36,64.66L98.36,64.66h-0.31
			c0,0-1,1.76-1.13,1.84c0.42-3.6,0.88-13,0.94-13.45l0.62-0.9c0.3-0.45,0.72-0.93,1-1.3c-0.28,4.59-0.71,9.2-1.07,13.79
			L98.36,64.66z M98.81,64.75L98.81,64.75L99,64c0.54,0.46,1,0.87,1.45,1.2c-0.07,0-0.92-0.21-1.52-0.36L98.81,64.75z M100.75,65.02
			L100.75,65.02c-0.61-0.45-1.19-0.92-1.75-1.43l0.06-0.71c1.22,1.06,2.06,1.8,2.07,1.87l-0.29,0.33L100.75,65.02z M115.75,50.02
			l0.33-0.28c0-0.17-6.56-7.72-8.82-10.3c-1.79,1.56-3.75,2.9-5.86,4c2.09-0.67,4.05-1.69,5.81-3
			C109.99,43.3,115.58,50,115.75,50.02L115.75,50.02z M115.88,47.02c-3-3.5-6-7.07-9-10.51c0.09,0.43,0.13,1.06,0.24,1.59l0.2,1.08
			c0.28,0.36,6.59,7.33,8.85,10.17c0-0.11-0.51-2.1-0.51-2.1l0.21-0.23L115.88,47.02z M115.47,45.83c0.79-0.04,1.57-0.12,2.35-0.25
			v-0.44c0,0-1.17,0-2.78,0.15l0.46,0.54L115.47,45.83z"/>
		<path class="st1" d="M7.33,84.33l-0.54-1.21H2.92l-0.79,1.73c-0.26,0.61,0.27,0.92,0.62,1.05v0.16H0V85.9
			c0.32-0.11,0.77-0.33,1.21-1.26l3.12-6.79c0-0.26-0.57-0.44-0.69-0.45v-0.17h2l3.43,7.49c0.21,0.54,0.64,0.97,1.19,1.17v0.16H6.9
			v-0.16c0.3-0.12,0.89-0.44,0.69-1C7.49,84.71,7.4,84.52,7.33,84.33z M3.28,82.33h3.16l-1.55-3.54L3.28,82.33z M11.33,78.33h0.09
			c0.07,0.17,0.27,0.17,0.41,0.17h5.4v0.69l-4.8,6.18h3.77c0.46,0,0.87-0.39,1.13-1h0.09l-0.3,1.69h-6.28v-0.64l4.81-6.18H12
			c-0.32,0-0.62,0.48-0.75,0.93h-0.1L11.33,78.33z M26.82,79.57c0-0.6-0.2-0.78-0.58-0.92V78.5h4c1.62,0,2.41,0.9,2.41,2.06
			s-0.82,2.06-2.43,2.06l2.1,2.51c0.26,0.34,0.61,0.61,1,0.79v0.14h-1.74l-3.25-3.91V82h1.77c0.7-0.02,1.25-0.6,1.24-1.3
			c0-0.03,0-0.05,0-0.08c0.08-0.68-0.41-1.28-1.09-1.36c0,0-0.01,0-0.01,0h-1.89c-0.22,0-0.36,0-0.36,0.36v5.46
			c0,0.57,0.19,0.76,0.57,0.9v0.14h-2.31V86c0.37-0.14,0.57-0.33,0.57-0.9V79.57z M34.53,86.02v-0.14c0.37-0.14,0.57-0.33,0.57-0.9
			v-5.37c0-0.6-0.2-0.78-0.57-0.92v-0.15h4.28c1,0,2.33,0.32,2.33,1.87c0,0.58-0.25,1.14-0.69,1.52c0.76,0.34,1.24,1.1,1.22,1.93
			c-0.06,1.29-1.15,2.28-2.44,2.21c-0.06,0-0.11-0.01-0.17-0.01L34.53,86.02z M36.28,79.16v2.5h2.41c0.61,0.06,1.16-0.38,1.22-0.99
			c0,0,0-0.01,0-0.01c0.01-0.09,0.01-0.19,0-0.28c0-1.08-0.69-1.23-1.27-1.23L36.28,79.16z M36.28,85.16c0,0.09,0.06,0.17,0.15,0.19
			H39c0.76-0.03,1.34-0.67,1.31-1.43c0,0,0,0,0,0v-0.09c0-0.75-0.4-1.5-1.18-1.5h-2.85V85.16z M48.38,84.55l-0.47-1h-3.29L43.94,85
			c-0.22,0.51,0.23,0.78,0.53,0.89v0.14h-2.34v-0.14c0.48-0.18,0.85-0.58,1-1.07l2.66-5.78c0-0.22-0.48-0.37-0.61-0.39v-0.14h1.7
			l2.89,6.38c0.18,0.46,0.54,0.82,1,1v0.15H48v-0.15c0.25-0.09,0.75-0.37,0.55-0.87c-0.04-0.16-0.09-0.31-0.16-0.46L48.38,84.55z
			 M45,82.86h2.68l-1.32-3L45,82.86z M54.5,82.65v2.53c0.01,0.34,0.25,0.62,0.58,0.69V86h-2.42v-0.14c0.34-0.05,0.59-0.34,0.59-0.69
			v-2.23l-2.55-3.56c-0.18-0.34-0.49-0.6-0.85-0.73v-0.14h2.46v0.14c-0.22,0.08-0.52,0.22-0.26,0.59L54,82l2.1-2.7
			c0.27-0.36,0-0.54-0.29-0.6v-0.15h2.06v0.15c-0.25,0.04-0.48,0.18-0.62,0.39L54.5,82.65z M62.14,85.56
			c1.14,0.05,2.18-0.64,2.57-1.71h0.1l-0.14,1.54c-0.82,0.53-1.77,0.82-2.75,0.84c-2.18,0.37-4.24-1.11-4.61-3.28
			c-0.37-2.18,1.11-4.24,3.28-4.61c0.44-0.07,0.88-0.07,1.32,0c0.87,0.01,1.74,0.21,2.53,0.58h0.11h0.09l-0.14,1.66h-0.1
			c-0.31-1.02-1.29-1.68-2.35-1.58c-1.66,0-3,1.34-3,3v0.23c-0.17,1.65,1.04,3.12,2.68,3.28c0.1,0.01,0.21,0.02,0.32,0.02
			L62.14,85.56z M71.55,84.56l-0.46-1h-3.3L67.05,85c-0.22,0.51,0.23,0.78,0.54,0.89v0.14h-2.37v-0.14c0.48-0.18,0.85-0.58,1-1.07
			l2.65-5.78c0-0.22-0.48-0.37-0.6-0.39v-0.14H70l2.89,6.38c0.18,0.46,0.54,0.82,1,1v0.14h-2.77v-0.14c0.27-0.1,0.76-0.38,0.56-0.88
			c-0.06-0.14-0.13-0.28-0.19-0.44L71.55,84.56z M68.12,82.85h2.64l-1.32-3L68.12,82.85z M82,86.05h-0.85L76,80v5.08
			c-0.04,0.37,0.2,0.72,0.57,0.81v0.15h-1.98V85.9c0.37-0.08,0.62-0.43,0.58-0.81v-5.63c0.01-0.36-0.23-0.69-0.58-0.79v-0.15h1.76
			l4.87,5.6v-4.63c0.04-0.38-0.21-0.73-0.58-0.82v-0.15h1.92v0.15c-0.37,0.1-0.61,0.44-0.57,0.82L82,86.05z M87.6,78.5
			c0-0.69-0.23-0.93-0.69-1.1v-0.16h4.74c1.91,0,2.83,1.06,2.83,2.4S93.53,82,91.63,82l2.47,3c0.31,0.39,0.7,0.71,1.15,0.92v0.17
			h-2.06l-3.82-4.59v-0.2h2.06c0.82-0.01,1.47-0.68,1.46-1.5c0,0,0-0.01,0-0.01v-0.13c0.11-0.8-0.44-1.54-1.24-1.65
			C91.63,78,91.6,78,91.58,78h-2.21c-0.25,0-0.42,0-0.42,0.41v6.41c0,0.69,0.22,0.9,0.68,1.05v0.17h-2.74V85.9
			c0.44-0.15,0.68-0.37,0.68-1.05L87.6,78.5z M98.29,79.18v2.71h2.34c0.28,0,0.4-0.32,0.48-0.77h0.1l-0.15,2.17H101
			c0-0.33-0.11-0.73-0.34-0.73H98.3v2.64c0,0.14,0.07,0.22,0.16,0.22h2.93c0.56,0,0.9-0.6,1-1h0.11l-0.34,1.7h-5.65v-0.15
			c0.37-0.14,0.57-0.32,0.57-0.9v-5.4c0-0.61-0.2-0.78-0.57-0.93V78.6h5.54c0.08,0,0.15-0.03,0.2-0.09l0,0l-0.16,1.69H102
			c0-0.3-0.1-0.94-0.43-0.94L98.29,79.18z M103.61,83.83L103.61,83.83c0.4,1.14,1.54,1.86,2.74,1.73c1,0,2.15-0.44,2.15-1.46
			c0-0.87-0.92-1.13-1.93-1.37c-1.38-0.36-2.86-0.73-2.86-2.25s1.54-2.11,3-2.11c0.7-0.03,1.39,0.14,2,0.49
			c0.09,0,0.19-0.03,0.26-0.09h0.1v1.66l0,0c-0.14-1.23-1.63-1.38-2.31-1.38c-1,0-1.85,0.39-1.85,1.22c0,0.62,1.23,0.92,1.79,1.07
			c1.37,0.36,3,0.87,3,2.64s-1.77,2.36-3.47,2.31c-0.97,0.02-1.91-0.29-2.68-0.87L103.61,83.83z M111.61,79.59
			c0-0.61-0.2-0.79-0.57-0.93v-0.14h4c1.62,0,2.41,0.9,2.41,2.06s-0.81,2.06-2.41,2.06h-2.29V85c0,0.58,0.19,0.76,0.58,0.9v0.15
			h-2.32V85.9c0.37-0.14,0.57-0.32,0.57-0.9L111.61,79.59z M113.14,79.16c-0.2,0-0.36,0-0.36,0.37V82h2.1
			c0.77-0.07,1.34-0.74,1.28-1.51c-0.06-0.68-0.6-1.22-1.28-1.28L113.14,79.16z M125.23,82.39c0,2.57-1.55,3.84-3.13,3.84
			s-3.21-1.32-3.21-3.9v-2.74c0-0.6-0.2-0.78-0.58-0.93v-0.14h2.38v0.14c-0.36,0.11-0.6,0.46-0.56,0.84v2.71
			c0,2.2,1.08,3.31,2.2,3.31s2.11-1,2.11-3.11v-2.82c0-0.59-0.19-0.77-0.56-0.92v-0.15h1.92v0.15c-0.38,0.14-0.57,0.32-0.57,0.92
			V82.39z M127,86v-0.14c0.37-0.14,0.57-0.32,0.57-0.9v-5.4c0-0.61-0.2-0.79-0.57-0.93v-0.14h4.28c1,0,2.33,0.31,2.33,1.86
			c0.01,0.58-0.24,1.14-0.68,1.52c0.76,0.34,1.25,1.1,1.23,1.94c-0.07,1.29-1.17,2.27-2.45,2.2c-0.05,0-0.1-0.01-0.15-0.01H127z
			 M128.76,79.14v2.5h2.41c0.61,0.06,1.16-0.39,1.22-1c0.01-0.09,0.01-0.18,0-0.27c0-1.08-0.69-1.22-1.27-1.22L128.76,79.14z
			 M128.76,85.14c0,0.09,0.06,0.17,0.15,0.19h2.56c0.76-0.03,1.35-0.67,1.32-1.43c0,0,0-0.06,0-0.09c0-0.75-0.39-1.49-1.18-1.49
			h-2.84L128.76,85.14z M140.9,86h-5.5v-0.14c0.37-0.09,0.61-0.44,0.57-0.82v-5.47c0-0.61-0.18-0.78-0.57-0.93V78.5h2.32v0.14
			c-0.37,0.14-0.56,0.34-0.56,0.93V85c0,0.28,0.09,0.34,0.25,0.34H140c0.46,0,0.88-0.4,1.13-1h0.09L140.9,86z M144.47,78.45v0.14
			c-0.4,0.12-0.64,0.52-0.57,0.93V85c-0.05,0.37,0.2,0.72,0.57,0.78V86h-2.36v-0.14c0.37-0.07,0.62-0.41,0.57-0.78v-5.54
			c0-0.6-0.19-0.78-0.57-0.93v-0.14L144.47,78.45z M143.17,76.52c0.37-0.07,0.72,0.18,0.79,0.55c0,0,0,0.01,0,0.01
			c0.06,0.37-0.19,0.73-0.56,0.79c-0.37,0.06-0.73-0.19-0.79-0.56l0,0c0-0.03,0-0.07,0-0.1c-0.01-0.32,0.24-0.59,0.56-0.62
			L143.17,76.52z M148.24,78.45v0.14c-0.4,0.12-0.65,0.52-0.58,0.93v3l3-3.32l0,0c0.24-0.28,0.09-0.55-0.27-0.59v-0.15h2v0.15
			c-0.42,0.22-0.8,0.52-1.11,0.88l-2.05,2.25l2.63,3.26c0.24,0.37,0.59,0.65,1,0.81V86H151l-2.63-3.32l-0.78,0.89V85
			c-0.05,0.38,0.21,0.74,0.59,0.81V86h-2.33v-0.15c0.37-0.08,0.62-0.43,0.57-0.81v-5.51c0-0.61-0.19-0.78-0.57-0.93v-0.15H148.24z
			 M159.02,84.45l-0.46-1h-3.3L154.57,85c-0.22,0.51,0.23,0.78,0.54,0.89V86h-2.35v-0.14c0.48-0.18,0.85-0.58,1-1.07l2.69-5.79
			c0-0.22-0.48-0.37-0.61-0.39v-0.14h1.71l2.89,6.38c0.18,0.46,0.54,0.82,1,1V86h-2.82v-0.14c0.26-0.1,0.75-0.38,0.56-0.88
			c-0.07-0.12-0.13-0.25-0.19-0.38L159.02,84.45z M155.59,82.74h2.69l-1.33-3L155.59,82.74z M161.91,83.74H162
			c0.4,1.15,1.54,1.86,2.75,1.73c1,0,2.15-0.44,2.15-1.45s-0.9-1.1-1.9-1.34c-1.38-0.35-2.86-0.72-2.86-2.25s1.55-2.11,3.06-2.11
			c0.7-0.03,1.39,0.14,2,0.49c0.1,0,0.19-0.03,0.27-0.09l0,0v1.66h-0.09c-0.14-1.23-1.64-1.38-2.31-1.38c-1,0-1.85,0.39-1.85,1.23
			c0,0.61,1.23,0.92,1.79,1.07c1.37,0.35,3,0.86,3,2.63s-1.78,2.36-3.47,2.32c-0.97,0.01-1.91-0.3-2.68-0.88L161.91,83.74z
			 M171.66,78.43v0.14c-0.36,0.15-0.56,0.35-0.56,0.93V85c-0.06,0.37,0.19,0.72,0.56,0.78V86h-2.32v-0.14
			c0.37-0.06,0.62-0.41,0.57-0.78v-5.54c0-0.6-0.19-0.78-0.57-0.93v-0.14L171.66,78.43z M21.39,78.28c-0.86,0.02-1.7,0.22-2.47,0.59
			l-0.13-0.07h-0.1v1.69h0.1c0.35-1.01,1.37-1.64,2.43-1.49c1.66,0,3,1.34,3,3c0,0.08,0,0.15,0,0.23v0.16H18.1
			c-0.01,0.13-0.01,0.26,0,0.39V83l0,0c0.07,1.35,0.94,2.53,2.21,3l0,0c0.37,0.09,0.74,0.14,1.12,0.15
			c2.12,0.15,3.95-1.44,4.11-3.55c0,0,0-0.01,0-0.01c0.01-0.12,0.01-0.24,0-0.36c0-2.14-1.74-3.87-3.88-3.86
			c-0.1,0-0.21,0-0.31,0.01L21.39,78.28z M21.5,85.46c-0.31,0-0.63-0.04-0.93-0.13c-0.91-0.41-1.47-1.34-1.41-2.33h5
			c-0.06,1.45-1.26,2.58-2.71,2.56L21.5,85.46z M36.5,99.95v0.16h-2.76V100c0.46-0.09,0.77-0.54,0.68-1v-6.8h-2.11
			c-0.78,0-1.07,0.57-1.27,1.13h-0.15l0.18-2h8l0.19,2h-0.14c-0.19-0.56-0.48-1.13-1.26-1.13h-2.08v6.87c-0.08,0.46,0.21,0.9,0.67,1
			L36.5,99.95z M55.9,92.6v0.14c-0.38,0.15-0.57,0.33-0.57,0.94v5.49c-0.04,0.37,0.2,0.72,0.57,0.81v0.14h-2.35V100
			c0.37-0.09,0.62-0.43,0.58-0.81v-2.55h-4.49v2.53c-0.05,0.38,0.2,0.74,0.58,0.81v0.14h-2.33V100c0.37-0.08,0.62-0.43,0.58-0.81
			v-5.51c0-0.62-0.19-0.78-0.58-0.94V92.6h2.33v0.14c-0.4,0.12-0.65,0.53-0.58,0.94V96h4.46v-2.32c0-0.6-0.2-0.78-0.58-0.94V92.6
			H55.9z M57.13,97.91h0.11c0.41,1.15,1.55,1.86,2.76,1.73c1,0,2.14-0.43,2.14-1.45s-0.91-1.14-1.93-1.38
			c-1.37-0.35-2.85-0.73-2.85-2.25s1.54-2.11,3-2.11c0.7-0.03,1.39,0.14,2,0.49c0.09,0,0.19-0.03,0.26-0.09h0.11v1.66h-0.15
			c-0.13-1.23-1.63-1.38-2.3-1.38c-1,0-1.85,0.39-1.85,1.22c0,0.62,1.23,0.92,1.79,1.08c1.37,0.35,3,0.87,3,2.63
			s-1.77,2.37-3.47,2.37c-0.97,0.02-1.91-0.29-2.68-0.88L57.13,97.91z M66.89,92.6v0.14c-0.37,0.15-0.57,0.34-0.57,0.94v5.49
			c-0.05,0.37,0.2,0.71,0.57,0.77v0.14h-2.36v-0.14c0.37-0.06,0.62-0.4,0.57-0.77v-5.49c0-0.62-0.18-0.78-0.57-0.94V92.6H66.89z
			 M65.6,90.67c0.34,0.02,0.6,0.32,0.58,0.66c0,0,0,0,0,0l0,0c0.05,0.32-0.17,0.62-0.49,0.67s-0.62-0.17-0.67-0.49l0,0
			c-0.01-0.06-0.01-0.12,0-0.18c-0.01-0.31,0.23-0.57,0.54-0.6L65.6,90.67z M73.84,100.11h-5.5V100c0.37-0.09,0.62-0.44,0.57-0.82
			v-5.51c0-0.61-0.18-0.78-0.57-0.94v-0.14h2.32v0.14c-0.37,0.15-0.57,0.35-0.57,0.94v5.44c0,0.27,0.09,0.35,0.25,0.35h2.61
			c0.46,0,0.88-0.41,1.13-1h0.09L73.84,100.11z M86.84,100.11h-1L79.7,93v6c-0.07,0.46,0.23,0.9,0.69,1v0.16h-2.26V100
			c0.46-0.1,0.75-0.54,0.68-1v-6.55c-0.01-0.42-0.28-0.79-0.68-0.93v-0.17h2.06l5.71,6.58v-5.44c0.06-0.46-0.24-0.9-0.69-1v-0.17
			h2.25v0.16c-0.45,0.1-0.75,0.54-0.69,1L86.84,100.11z M94.36,98.64l-0.46-1h-3.33l-0.68,1.47c-0.23,0.52,0.22,0.78,0.53,0.89v0.14
			h-2.34V100c0.48-0.18,0.85-0.58,1-1.07l2.66-5.78c0-0.22-0.48-0.38-0.6-0.39v-0.14h1.7L95.76,99c0.18,0.46,0.54,0.82,1,1v0.14H94
			V100c0.25-0.1,0.75-0.37,0.54-0.88c-0.09-0.1-0.15-0.23-0.19-0.36L94.36,98.64z M90.9,96.93h2.69l-1.33-3L90.9,96.93z M97.9,92.43
			H98c0.07,0.17,0.27,0.17,0.4,0.17h5.4v0.68L99,99.46h3.77c0.46,0,0.87-0.38,1.14-1H104l-0.29,1.69h-6.29v-0.63l4.8-6.18h-3.63
			c-0.31,0-0.61,0.47-0.74,0.92h-0.09L97.9,92.43z M107.51,92.6v0.14c-0.37,0.15-0.57,0.34-0.57,0.94v5.49
			c-0.05,0.37,0.2,0.71,0.57,0.77v0.14h-2.37v-0.14c0.37-0.06,0.61-0.4,0.56-0.77v-5.49c0-0.62-0.19-0.78-0.56-0.94V92.6H107.51z
			 M106.22,90.67c0.37-0.06,0.72,0.2,0.77,0.57c0.06,0.37-0.2,0.72-0.57,0.77c-0.36,0.05-0.71-0.19-0.77-0.56c0-0.04,0-0.07,0-0.11
			c0-0.31,0.23-0.56,0.53-0.6L106.22,90.67z M109.53,93.67c0-0.62-0.2-0.79-0.57-0.94V92.6h4c1.63,0,2.42,0.9,2.42,2.06
			s-0.82,2.06-2.43,2.06l2.1,2.5c0.26,0.34,0.61,0.61,1,0.79v0.14h-1.76L111,96.31v-0.17h1.78c0.7-0.03,1.24-0.61,1.22-1.31v-0.06
			c0.07-0.69-0.43-1.3-1.12-1.37c0,0,0,0,0,0h-1.87c-0.2,0-0.35,0-0.35,0.36v5.46c0,0.58,0.18,0.77,0.57,0.9v0.14H109v-0.14
			c0.37-0.13,0.57-0.32,0.57-0.9L109.53,93.67z M122.75,100.11h-5.5V100c0.37-0.08,0.62-0.43,0.57-0.81v-5.51
			c0-0.62-0.19-0.78-0.57-0.94V92.6h2.32v0.14c-0.36,0.15-0.57,0.34-0.57,0.94v5.44c0,0.27,0.09,0.34,0.25,0.34h2.6
			c0.47,0,0.88-0.4,1.13-1h0.1L122.75,100.11z M126.18,92.59v0.15c-0.36,0.14-0.57,0.34-0.57,0.93v5.49
			c-0.05,0.37,0.2,0.72,0.57,0.78v0.14h-2.28V100c0.37-0.06,0.62-0.41,0.56-0.78v-5.54c0-0.61-0.18-0.77-0.56-0.93V92.6
			L126.18,92.59z M124.89,90.66c0.34,0.02,0.61,0.32,0.59,0.66l0,0c0.06,0.32-0.15,0.63-0.47,0.69s-0.63-0.15-0.69-0.47
			c-0.02-0.07-0.02-0.15,0-0.22c-0.01-0.3,0.2-0.56,0.49-0.61L124.89,90.66z M131.4,96.72v2.53c0.01,0.33,0.25,0.62,0.58,0.69v0.14
			h-2.33V100c0.33-0.07,0.57-0.35,0.58-0.69V97l-2.64-3.45c-0.19-0.34-0.49-0.6-0.85-0.73v-0.15h2.46v0.15
			c-0.22,0.07-0.54,0.21-0.27,0.58l1.93,2.75l2.14-2.69c0.28-0.35,0-0.53-0.28-0.59v-0.15h2.06v0.15c-0.25,0.03-0.48,0.17-0.61,0.39
			L131.4,96.72z M137.75,92.6v0.15c-0.36,0.14-0.57,0.34-0.57,0.93v5.49c-0.05,0.37,0.2,0.72,0.57,0.78v0.13h-2.41V100
			c0.37-0.06,0.62-0.41,0.57-0.78v-5.53c0-0.61-0.18-0.78-0.57-0.93v-0.15L137.75,92.6z M136.46,90.67c0.34,0.02,0.6,0.32,0.58,0.66
			c0,0,0,0,0,0l0,0c0.05,0.32-0.17,0.62-0.49,0.67c-0.32,0.05-0.62-0.17-0.66-0.49l0,0c-0.01-0.06-0.01-0.12,0-0.18
			c-0.02-0.3,0.19-0.56,0.48-0.62L136.46,90.67z M42.86,92.43c-0.86,0.01-1.7,0.21-2.47,0.58l-0.13-0.07h-0.1v1.68h0.11
			c0.33-1.01,1.32-1.66,2.38-1.54c1.66,0,3,1.34,3,3v0.37h-6.06c-0.01,0.13-0.01,0.26,0,0.39v0.24l0,0c0.09,1.35,0.96,2.53,2.23,3
			l0,0c0.36,0.09,0.74,0.14,1.11,0.15c2.11,0.13,3.92-1.47,4.07-3.57c0-0.11,0-0.22,0-0.33c0.01-2.15-1.72-3.9-3.87-3.91
			C43.04,92.42,42.95,92.42,42.86,92.43z M43,99.61c-0.32,0-0.63-0.05-0.93-0.15c-0.91-0.4-1.48-1.33-1.41-2.33h5
			C45.57,98.53,44.4,99.62,43,99.61z"/>
		<g>
			<path id="path4" d="M84.27,44.12l0.08-0.15c0.05-0.11,0.07-0.23,0.05-0.34l-0.01-0.14l0.09,0.07c0.1,0.08,0.19,0.15,0.28,0.22
				l0.06,0.05L84.27,44.12z M95.01,36.42C95.01,36.42,95.01,36.42,95.01,36.42c0-0.01,0-0.01,0-0.02s0,0,0,0s0,0-0.01,0s0,0-0.01,0
				c0,0,0,0-0.01,0s0,0,0,0s0,0,0,0.01c-0.1,0.27-0.21,0.56-0.32,0.81c-0.07,0.08-0.2,0.23-0.29,0.27c0.1-0.12,0.16-0.27,0.18-0.43
				c0.16-0.3,0.29-0.62,0.38-0.95c0,0,0,0,0-0.01s0,0,0-0.01c0,0,0,0,0,0s0,0-0.01,0s0,0-0.01,0s0,0-0.01,0c0,0,0,0,0,0
				c0,0,0,0,0,0.01c-0.08,0.29-0.19,0.58-0.32,0.85c0.01-0.12,0.02-0.24,0.01-0.37c0.14-0.28,0.24-0.58,0.3-0.89c0,0,0,0,0-0.01
				c0,0,0,0,0-0.01c0,0,0,0,0,0s0,0-0.01,0c0,0-0.01,0-0.01,0c0,0-0.01,0.01-0.01,0.01c-0.06,0.28-0.15,0.55-0.26,0.81
				c0-0.08,0-0.16,0-0.22c0-0.04,0-0.07,0-0.11c0.11-0.36,0.2-0.73,0.26-1.1c0,0,0,0,0-0.01s0,0,0-0.01l0,0c0,0,0,0-0.01,0
				s-0.01,0-0.01,0s-0.01,0.01-0.01,0.01c-0.07,0.4-0.17,0.8-0.29,1.19c-0.03,0.05-0.06,0.09-0.1,0.13
				c-0.02,0.02-0.03,0.04-0.04,0.05c-0.04,0.06-0.09,0.13-0.14,0.22c0.11-0.35,0.22-0.75,0.29-1.05c0,0,0-0.01,0-0.01
				s-0.01-0.01-0.01-0.01c0,0-0.01,0-0.01,0c0,0-0.01,0.01-0.01,0.01c-0.07,0.35-0.22,0.82-0.34,1.21c-0.09,0.14-0.16,0.29-0.2,0.44
				c-0.02-0.15-0.02-0.31,0.02-0.46c0.14-0.37,0.26-0.74,0.36-1.11c0,0,0,0,0-0.01c0,0,0,0,0-0.01c0,0,0,0,0,0s0,0-0.01,0
				s0,0-0.01,0c0,0,0,0-0.01,0c0,0,0,0,0,0c0,0,0,0,0,0.01c-0.12,0.45-0.27,0.89-0.44,1.32c0,0,0,0.01,0,0.01
				c-0.14,0.19-0.24,0.4-0.3,0.63c-0.06-0.27,0.15-0.79,0.21-0.98l0,0c-0.65,1.44-1.7,2.55-3.03,3.45
				c-1.33,0.89-2.88,1.39-4.48,1.44c-0.09,0-0.18,0-0.27,0c-1.85,0-3.64-0.6-5.12-1.71c-1.48-1.11-2.55-2.54-3.07-4.32
				c-0.11-0.16-0.26-0.3-0.41-0.3c-0.04,0-0.08,0.01-0.11,0.03s-0.06,0.05-0.09,0.08c-0.29,0.32,0.08,0.68,0.12,0.72
				c0.02,0.02,0.04,0.05,0.05,0.08c0.01,0.03,0.01,0.06,0.01,0.09c-0.01,0.05-0.05,0.09-0.12,0.11c-0.05,0.02-0.1,0.05-0.14,0.1
				c-0.04,0.05-0.06,0.1-0.07,0.15c-0.01,0.07,0,0.14,0.02,0.2l0.04,0.09l-0.1-0.01c-0.02,0-0.05,0-0.07,0
				c-0.08,0-0.16,0.02-0.22,0.07c-0.01,0.01-0.02,0.03-0.03,0.04s0,0.03,0,0.05c0.03,0.24,0.35,0.47,0.35,0.47c0,0.02,0,0.04,0,0.06
				c0,0.02,0.01,0.04,0.02,0.05c0.01,0.02,0.03,0.03,0.05,0.04c0.02,0.01,0.04,0.02,0.06,0.02c0.04,0.01,0.09,0.02,0.13,0.02
				c0.02,0,0.04,0,0.05,0c0,0,0.05,0,0.09-0.01c-0.16,0.15-0.05,0.84,0.63,0.91c0.03,0,0.06,0,0.1,0c-0.32,0.43,0.22,0.65,0.22,0.82
				c0,0.07-0.09,0.14-0.16,0.19c-0.11,0.06-0.23,0.11-0.23,0.27c0,0.19,0.11,0.37,0.54,0.37c0.15,0,0.32,0.01,0.32,0.12
				c0,0.05-0.06,0.1-0.12,0.14c-0.08,0.05-0.17,0.11-0.17,0.21c0,0.02,0,0.23,0.32,0.34l0.13,0.04l-0.12,0.06
				c-0.04,0.01-0.06,0.04-0.09,0.06c-0.02,0.03-0.04,0.06-0.04,0.1c0,0.1,0.08,0.19,0.25,0.26c0.13,0.05,0.26,0.08,0.4,0.09
				l0.01,0.02l0.01,0.02c0.01,0.01,0.03,0.03,0.05,0.04c0.02,0.01,0.04,0.01,0.05,0.02l0.05,0v0.05c0,0.04,0.01,0.07,0.02,0.1
				c0.01,0.03,0.04,0.06,0.06,0.08c0.07,0.07,0.15,0.14,0.23,0.2l0.14,0.1l-0.16,0.01c-0.26,0.01-0.48,0.17-0.52,0.36
				c-0.01,0.05-0.01,0.09,0,0.14c0.01,0.05,0.03,0.09,0.05,0.13c0.08,0.09,0.19,0.15,0.3,0.16c0.01,0,0.02,0,0.03,0
				c0.07,0,0.15-0.01,0.22-0.04c0.14-0.03,0.18-0.03,0.24,0.15c0.05,0.15,0.09,0.25,0.22,0.25h0.09c0,0-0.17,0.51,0.04,0.7
				c0.03,0.02,0.06,0.03,0.09,0.02c0.11,0,0.27-0.15,0.39-0.29c0.16-0.2,0.3-0.22,0.32-0.22h0.02l0.01,0.01
				c0.05,0.03,0.11,0.05,0.18,0.06c0.03,0.01,0.06,0.02,0.09,0.05c0.03,0.02,0.05,0.05,0.05,0.09c0.01,0.04,0.01,0.07,0,0.11
				c-0.01,0.04-0.03,0.06-0.06,0.09c-0.09,0.09-0.13,0.22-0.13,0.34c0,0.05,0,0.11,0.02,0.16c0.02,0.05,0.05,0.1,0.08,0.14
				c0.04,0.04,0.08,0.07,0.13,0.09c0.05,0.02,0.11,0.03,0.16,0.03c0.06,0,0.13,0,0.19-0.03c0.06-0.03,0.11-0.06,0.16-0.11
				c0.08-0.1,0.13-0.22,0.12-0.35c0-0.02,0-0.05,0-0.07c0-0.02,0.02-0.05,0.03-0.07c0.01-0.01,0.02-0.02,0.04-0.03
				c0.01,0,0.03-0.01,0.05-0.01c0.04,0,0.07,0.01,0.1,0.03c0.07,0.06,0.16,0.1,0.24,0.1c0.06,0,0.13-0.03,0.18-0.06
				c0.04-0.03,0.07-0.07,0.09-0.12l0.03-0.08l0.06,0.06c0.03,0.03,0.06,0.05,0.1,0.07c0.04,0.02,0.08,0.02,0.12,0.02
				c0.08,0,0.15-0.02,0.22-0.06l0.08-0.06l0,0.11v0.01c0,0.03,0.01,0.05,0.02,0.08c0.01,0.02,0.03,0.05,0.06,0.06
				c0.11,0.07,0.32-0.02,0.32-0.02s-0.31,0.18-0.34,0.21c-0.01,0.01-0.02,0.02-0.02,0.03c0,0.01,0,0.03,0,0.04
				c0.01,0.1,0.19,0.14,0.31,0.14c0.04,0,0.08,0,0.12-0.01c0.06-0.01,0.11-0.04,0.16-0.06c0,0,0.52-0.38,0.91-0.52
				c-0.28,0.16-0.54,0.34-0.81,0.53c-0.02,0.02-0.04,0.04-0.05,0.06c-0.01,0.03-0.01,0.05-0.01,0.08c0.03,0.12,0.27,0.14,0.34,0.14
				c0.12,0,0.38-0.06,0.46-0.14l0,0c0,0,0.01-0.01,0.01-0.02l0,0c0.14-0.16,0.3-0.29,0.48-0.41l0.03-0.02l0.03,0.02
				c0.18,0.1,0.55,0.32,0.75,0.43l0.06,0.04v0l0.06,0.04c0.03,0.02,0.06,0.03,0.1,0.03c0.05,0.01,0.11,0.01,0.17,0.01
				c0.34,0,0.59-0.14,0.59-0.26c0-0.02,0-0.05-0.02-0.06c-0.01-0.02-0.03-0.03-0.05-0.04l0,0c-0.16-0.07-0.73-0.34-1.13-0.54
				l0.33,0.03L86.56,44c0.2,0.02,0.69,0.3,0.96,0.47l0.01,0c0.06,0.03,0.12,0.04,0.19,0.04c0.13,0,0.35-0.05,0.37-0.16
				c0-0.03,0-0.06-0.01-0.09c-0.01-0.03-0.04-0.05-0.07-0.06l-1.28-0.51l0.03-0.1v0c0.71,0.3,1.43,0.56,2.16,0.78l-0.06,0.05
				c-0.09,0.07-0.34,0.24-0.89,0.32l0,0c0.17,0.04,0.35,0.05,0.52,0.05c0.41-0.01,0.81-0.11,1.17-0.28
				c0.02-0.19,0.06-0.38,0.11-0.57l0.01-0.04l0.35-0.01l-0.07,0.09c-0.06,0.08-0.11,0.17-0.14,0.27c0.27-0.11,0.53-0.26,0.77-0.43
				c0.11-0.14,0.2-0.3,0.24-0.48c-0.01-0.01-0.02-0.03-0.03-0.05c-0.35,0.04-1.26,0.1-1.56,0.06c0.01-0.01,0.08-0.05,0.11-0.06
				c0.53-0.01,1.06-0.11,1.56-0.28c0.08-0.03,0.16-0.05,0.24-0.07c0.35-0.1,0.68-0.25,0.99-0.44c0,0,0,0,0,0s0,0,0-0.01s0,0,0-0.01
				c0,0,0,0,0-0.01c0,0,0,0,0,0s0,0-0.01,0s0,0-0.01,0s0,0-0.01,0c-0.56,0.32-0.91,0.43-1.31,0.51c-0.33,0.04-0.76-0.16-0.76-0.16
				c0.49,0.06,1.24-0.22,1.8-0.54c0.32-0.13,0.63-0.32,0.91-0.54l0,0c0,0,0,0,0-0.01c0,0,0,0,0-0.01s0,0,0-0.01l0,0c0,0,0,0-0.01,0
				s0,0-0.01,0s0,0-0.01,0c-0.22,0.18-0.45,0.33-0.7,0.45c-0.31,0.09-0.64,0.11-0.96,0.06c0.34-0.03,0.79-0.26,1.15-0.48
				c0.41-0.21,0.79-0.45,1.15-0.73c0,0,0.01-0.01,0.01-0.01s0-0.01,0-0.01c0,0-0.01-0.01-0.01-0.01s-0.01,0-0.01,0
				c-0.29,0.22-0.6,0.43-0.92,0.6c-0.25,0.05-0.5,0.05-0.75,0c0.51-0.03,0.92-0.29,1.31-0.61c0.3-0.19,0.58-0.41,0.84-0.66l0,0
				c0,0,0,0,0-0.01c0,0,0,0,0-0.01s0,0,0-0.01l0,0c0,0,0,0-0.01,0s0,0-0.01,0c0,0,0,0-0.01,0c-0.23,0.22-0.48,0.41-0.73,0.59
				c-0.27,0.09-0.54,0.12-0.82,0.09c0.48-0.05,0.84-0.34,1.11-0.61c0.25-0.2,0.48-0.42,0.7-0.65c0,0,0-0.01,0-0.01
				c0,0,0-0.01,0-0.01c0,0-0.01,0-0.01,0c0,0-0.01,0-0.01,0c-0.16,0.17-0.33,0.34-0.51,0.5c-0.15,0.08-0.31,0.12-0.48,0.12
				c0.23-0.07,0.58-0.4,0.81-0.7c0.32-0.33,0.6-0.69,0.84-1.08c0,0,0,0,0-0.01s0,0,0-0.01s0,0,0-0.01c0,0,0,0,0,0c0,0,0,0-0.01,0
				c0,0,0,0-0.01,0s0,0-0.01,0c0,0,0,0,0,0c-0.23,0.36-0.49,0.7-0.78,1.01c-0.12,0.03-0.24,0.05-0.37,0.05
				c0.22-0.1,0.35-0.37,0.6-0.73c0.25-0.27,0.46-0.58,0.64-0.9c0,0,0-0.01,0-0.01c0,0,0-0.01-0.01-0.01c0,0-0.01,0-0.01,0
				c0,0-0.01,0-0.01,0.01c-0.14,0.26-0.31,0.5-0.49,0.72c-0.08,0.08-0.18,0.13-0.29,0.15c0.18-0.21,0.33-0.43,0.45-0.68
				c0.18-0.24,0.33-0.51,0.44-0.79c0,0,0,0,0-0.01c0,0,0,0,0-0.01s0,0,0-0.01c0,0,0,0-0.01,0s0,0-0.01,0s0,0-0.01,0c0,0,0,0-0.01,0
				l0,0c-0.11,0.29-0.27,0.55-0.45,0.8c-0.07,0.06-0.15,0.11-0.23,0.14c0.26-0.25,0.35-0.6,0.44-0.91
				C94.78,37.04,94.91,36.73,95.01,36.42z"/>
			<g id="g36">
				<path id="path6" class="st2" d="M78.74,38.18c0.2,0.15,0.21,0.24,0.16,0.32c-0.04,0.08-0.12,0.27,0.05,0.36
					c0.15,0.07,0.29-0.21,0.33-0.39c-0.17-0.22-0.33-0.43-0.48-0.66c-0.04,0.01-0.07,0.03-0.1,0.06c-0.03,0.03-0.04,0.06-0.05,0.1
					c-0.01,0.04,0,0.08,0.01,0.11C78.69,38.12,78.72,38.15,78.74,38.18z"/>
				<path id="path8" class="st2" d="M80.33,39.87c0.02,0.05,0.04,0.08,0.05,0.08l0,0c0.02-0.08,0.02-0.16,0-0.24
					c-0.02-0.08-0.07-0.15-0.13-0.2c-0.03-0.03-0.07-0.04-0.12-0.05c-0.04,0-0.09,0-0.12,0.02C80.2,39.56,80.29,39.79,80.33,39.87z"
					/>
				<path id="path10" class="st2" d="M84.87,43.4c-0.03-0.38-0.43-0.01-0.43-0.01c0.15,0.14,0.31,0.27,0.48,0.39
					c0.04-0.02,0.03-0.02,0.07-0.04l-0.03-0.05C84.91,43.61,84.88,43.51,84.87,43.4z"/>
				<path id="path12" class="st2" d="M83.49,43.65c-0.15,0-0.29-0.11-0.39-0.2c0,0-0.09-0.09-0.16-0.03
					c-0.05,0.04-0.02,0.16,0.02,0.22c0.05,0.06,0.08,0.13,0.11,0.2c0.05,0.08,0.19,0.2,0.28,0.18c0.17-0.03,0.28-0.11,0.23-0.41
					C83.55,43.64,83.52,43.65,83.49,43.65z"/>
				<path id="path14" class="st2" d="M78.39,37.57c-0.16-0.46-0.39-0.66-0.65-0.89l-0.04-0.03c0,0,0-0.01-0.01-0.01
					c0,0,0-0.01,0-0.01c0,0,0.01,0,0.01-0.01c0,0,0.01,0,0.01,0l0.04,0.03c0.22,0.17,0.39,0.38,0.53,0.61
					c-0.19-0.51-0.44-0.99-0.75-1.44c0,0,0-0.01,0-0.01c0,0,0-0.01,0.01-0.01c0,0,0.01,0,0.01,0s0.01,0,0.01,0.01
					c0.36,0.55,0.65,1.03,0.86,1.78c0.17,0.25,0.03-0.36,0.03-0.36v0c-0.25-0.46-0.46-0.94-0.62-1.44l0,0
					c-0.09-0.26-0.43-0.72-0.65-0.43c-0.14,0.19-0.15,0.33,0.17,0.7c0.02,0.02,0.04,0.05,0.05,0.08c0.01,0.03,0.01,0.06,0,0.1
					s-0.02,0.06-0.04,0.09c-0.02,0.03-0.05,0.05-0.07,0.06c-0.33,0.15-0.25,0.34-0.11,0.44c0.1,0.07,0.49,0.33,0.47,0.55
					c-0.02,0.22-0.27,0.25-0.26,0.52c0,0.17,0.18,0.59,0.6,0.59C78.32,38.47,78.54,38.05,78.39,37.57z"/>
				<path id="path16" class="st2" d="M79.56,38.79c-0.09-0.01-0.27,0-0.33,0.07c-0.09,0.1-0.32,0.22-0.43-0.03
					c-0.13-0.29-0.25-0.45-0.54-0.28c-0.29,0.16-0.14,0.47,0,0.6c0.14,0.14,0.33,0.29,0.08,0.43C78.13,39.69,78,39.7,78,39.86
					c0,0.11,0.05,0.28,0.52,0.28c0.18,0,0.4,0.03,0.39,0.21c-0.01,0.23-0.33,0.2-0.33,0.34c0,0.15,0.16,0.3,0.54,0.32
					c0.14,0.01,0.28-0.03,0.4-0.11c-0.01-0.03-0.01-0.05-0.01-0.09c0-0.12,0.1-0.2,0.2-0.28c0.04-0.03,0.04-0.05,0.04-0.05
					c0-0.01-0.01-0.05-0.16-0.18c-0.06-0.05-0.11-0.11-0.15-0.18c-0.1-0.09-0.2-0.18-0.3-0.29c-0.06,0.01-0.13,0.01-0.19,0.01
					c-0.17,0-0.34-0.02-0.51-0.06c0,0-0.01,0-0.01-0.01c0,0,0-0.01,0-0.01c0,0,0-0.01,0.01-0.01c0,0,0.01,0,0.01,0
					c0.22,0.05,0.44,0.07,0.66,0.05c-0.29-0.31-0.54-0.65-0.76-1.01c0,0,0-0.01,0-0.01c0,0,0-0.01,0.01-0.01s0.01,0,0.01,0
					c0,0,0.01,0,0.01,0.01c0.22,0.35,0.47,0.68,0.75,0.99c-0.01-0.23-0.01-0.46,0.02-0.69c0,0,0,0,0-0.01c0,0,0,0,0,0s0,0,0.01,0
					c0,0,0,0,0.01,0s0,0,0.01,0c0,0,0,0,0,0s0,0,0,0.01s0,0,0,0.01c-0.03,0.24-0.04,0.49-0.02,0.73c0.08,0.08,0.16,0.16,0.24,0.23
					c-0.03-0.1-0.03-0.2,0.01-0.29c0.04-0.09,0.11-0.17,0.19-0.22c0.08-0.05,0.17-0.08,0.27-0.08c0.02,0,0.04,0,0.06,0
					c0-0.11-0.01-0.22-0.04-0.32C79.78,39.02,79.67,38.91,79.56,38.79z"/>
				<path id="path18" class="st2" d="M80.25,39.88c-0.09-0.21-0.29-0.49-0.61-0.28c-0.23,0.15-0.24,0.45,0,0.64
					c0.2,0.16,0.26,0.23,0.1,0.36c-0.16,0.12-0.22,0.24-0.02,0.41c0.2,0.17,0.32,0.29,0.24,0.41c-0.14,0.2-0.53,0.29-0.3,0.51
					c0.09,0.1,0.2,0.18,0.31,0.24c0-0.01,0-0.02,0-0.04c0-0.05,0-0.1,0.01-0.14c0.01-0.05,0.04-0.09,0.07-0.12
					c0.02-0.02,0.05-0.04,0.08-0.05c0.03-0.01,0.06-0.02,0.1-0.02c0.05,0,0.1,0.01,0.15,0.04c0.05,0.04,0.12,0.06,0.19,0.06
					c0.05,0,0.1-0.01,0.14-0.04c0.04-0.02,0.06-0.06,0.07-0.1l0,0c-0.18-0.04-0.35-0.1-0.51-0.18c0,0,0,0-0.01,0c0,0,0,0,0-0.01
					s0,0,0-0.01c0,0,0,0,0-0.01s0,0,0,0s0,0,0.01,0c0,0,0,0,0.01,0s0,0,0.01,0c0.16,0.08,0.32,0.14,0.49,0.18c0,0,0,0,0.01,0v0
					c0.01-0.06,0.02-0.12,0.05-0.18c0,0,0,0,0,0c-0.09-0.21-0.19-0.42-0.31-0.61c-0.11-0.05-0.23-0.08-0.35-0.09
					c-0.11-0.02-0.22-0.04-0.34-0.07c0,0,0,0-0.01,0c0,0,0,0,0,0c0,0,0,0,0-0.01c0,0,0,0,0-0.01s0,0,0-0.01l0,0c0,0,0,0,0.01,0
					c0,0,0,0,0.01,0c0.11,0.03,0.23,0.05,0.34,0.07c0.11,0.01,0.21,0.04,0.31,0.07c-0.22-0.34-0.46-0.68-0.72-0.99c0,0,0,0,0-0.01
					c0,0,0,0,0-0.01s0,0,0-0.01c0,0,0,0,0,0s0,0,0.01,0s0,0,0.01,0c0,0,0,0,0.01,0c0,0,0,0,0,0c0.27,0.32,0.51,0.65,0.73,0.99
					c0-0.31,0.04-0.59,0.09-0.68c0,0,0.01-0.01,0.01-0.01s0.01,0,0.01,0c0,0,0.01,0.01,0.01,0.01c0,0,0,0.01,0,0.01
					c-0.04,0.08-0.09,0.36-0.09,0.73c0.11,0.19,0.21,0.38,0.3,0.59c0.04-0.06,0.08-0.11,0.14-0.15c0.03-0.02,0.07-0.04,0.11-0.05
					v-0.33c0,0,0-0.01,0-0.01c0,0,0.01,0,0.01,0c0,0,0.01,0,0.01,0c0,0,0,0.01,0,0.01v0.32c0.01,0,0.01,0,0.02,0
					c0.23,0,0.51,0.23,0.68,0.44c0.05-0.01,0.09-0.01,0.13-0.01c0.12,0,0.15-0.01,0.16-0.06c0.02-0.07,0-0.1-0.26-0.22
					c-0.03-0.01-0.07-0.03-0.11-0.05c-0.06-0.02-0.11-0.06-0.15-0.11c-0.04-0.05-0.07-0.1-0.09-0.16c-0.01-0.06-0.01-0.12,0-0.18
					c0.01-0.06,0.04-0.11,0.07-0.16c-0.07-0.16-0.19-0.29-0.43-0.24c-0.11,0.02-0.27,0.06-0.32-0.18c-0.05-0.25-0.13-0.48-0.31-0.37
					C80.43,40.07,80.33,40.09,80.25,39.88z"/>
				<path id="path20" class="st2" d="M84.03,42.13L84.03,42.13c0.04-0.2-0.02-0.72-0.44-0.56c-0.33,0.12-0.38,0.1-0.4-0.11
					c-0.02-0.22-0.27-0.32-0.49-0.32c-0.21,0-0.2,0.05-0.28-0.07c-0.08-0.12-0.56-0.37-0.56-0.37c-0.05,0.01-0.11,0.04-0.15,0.08
					c-0.11,0.15-0.21,0.41,0.06,0.54c0.27,0.13,0.49,0.13,0.43,0.34c-0.07,0.26-0.36,0.05-0.43,0.24c-0.04,0.12,0.13,0.44,0.43,0.33
					c0.27-0.1,0.63-0.12,0.65,0.09c0.03,0.33-0.63,0.31-0.3,0.7c0.16,0.18,0.53,0.15,0.78,0.11c0.12-0.03,0.22-0.1,0.29-0.2
					c-0.02-0.09-0.04-0.18-0.07-0.27c-0.25-0.08-0.41-0.09-0.54-0.03c0,0-0.01,0-0.01,0c0,0-0.01,0-0.01-0.01c0,0,0-0.01,0-0.02
					c0,0,0-0.01,0.01-0.01c0.16-0.07,0.33-0.05,0.54,0.01c-0.15-0.36-0.4-0.57-0.67-0.76c-0.16,0.03-0.32,0.05-0.49,0.05
					c-0.03,0-0.05,0-0.08,0c0,0,0,0-0.01,0c0,0,0,0,0,0s0,0,0-0.01s0,0,0-0.01c0,0,0-0.01,0.01-0.01c0,0,0.01,0,0.01,0
					c0.17,0,0.34-0.01,0.51-0.04l-0.05-0.04c-0.29-0.2-0.59-0.41-0.75-0.8c0,0,0-0.01,0-0.02c0,0,0-0.01,0.01-0.01
					c0,0,0.01,0,0.02,0c0,0,0.01,0,0.01,0.01c0.15,0.38,0.43,0.57,0.74,0.78c0.03,0.02,0.05,0.04,0.08,0.05
					c0-0.17-0.04-0.34-0.1-0.49c0,0,0,0,0-0.01c0,0,0,0,0-0.01s0,0,0-0.01l0,0c0,0,0,0,0.01,0c0,0,0,0,0.01,0s0,0,0.01,0l0,0
					c0.07,0.17,0.11,0.36,0.11,0.54v0c0.25,0.17,0.49,0.37,0.64,0.69c0-0.05-0.01-0.11-0.02-0.18c-0.03-0.15-0.04-0.3-0.05-0.46
					c0,0,0,0,0-0.01s0,0,0,0l0,0c0,0,0,0,0.01,0s0,0,0.01,0s0,0,0,0l0,0c0,0,0,0,0,0.01c0,0.15,0.02,0.3,0.05,0.45
					c0.02,0.1,0.03,0.2,0.03,0.3c0.03,0.08,0.05,0.16,0.07,0.25c0.01-0.02,0.03-0.05,0.04-0.07c0.06-0.14,0.13-0.29,0.19-0.41
					C83.97,42.32,84.01,42.23,84.03,42.13z"/>
				<path id="path22" class="st2" d="M83.52,43.17c-0.15,0.05-0.32,0.08-0.48,0.07c-0.22,0-0.38-0.05-0.49-0.16
					c0,0-0.01-0.01-0.02-0.02c-0.05,0.05-0.1,0.11-0.14,0.16c0,0.21,0.05,0.42,0.15,0.6c0,0,0,0.01,0,0.01s0,0.01-0.01,0.01
					c0,0-0.01,0-0.01,0s-0.01,0-0.01-0.01c-0.1-0.17-0.15-0.37-0.15-0.57c-0.22,0.34-0.35,0.72-0.38,1.12c0,0,0,0.01,0,0.01
					c0,0-0.01,0-0.01,0l0,0c0,0-0.01,0-0.01-0.01s0-0.01,0-0.01c0.03-0.39,0.16-0.76,0.37-1.1c-0.11,0.07-0.28,0.2-0.39,0.29
					c0,0-0.01,0-0.01,0c0,0-0.01,0-0.01-0.01c0,0,0-0.01,0-0.01c0,0,0-0.01,0-0.01c0.16-0.14,0.47-0.35,0.49-0.36
					c0.05-0.06,0.1-0.12,0.15-0.17c-0.03-0.03-0.05-0.06-0.06-0.1c-0.01-0.04-0.02-0.08-0.02-0.12c0.01-0.13,0.12-0.21,0.22-0.27
					c0.03-0.02,0.06-0.04,0.09-0.06c-0.03-0.04-0.05-0.06-0.07-0.08c-0.05-0.04-0.1-0.07-0.16-0.1c-0.06-0.02-0.12-0.03-0.18-0.02
					c-0.01,0-0.02,0-0.04,0.01c-0.04,0.01-0.09,0.03-0.13,0.03c-0.13,0.07-0.08,0.21,0.01,0.27c0.03,0.01,0.05,0.04,0.07,0.06
					c0.02,0.03,0.03,0.06,0.03,0.09s-0.01,0.06-0.02,0.09c-0.01,0.03-0.04,0.05-0.07,0.07c-0.16,0.11-0.34,0.17-0.54,0.19
					c-0.26,0.05-0.37,0.15-0.38,0.28c-0.02,0.28,0.33,0.18,0.43,0.28c0.03,0.03,0.05,0.06,0.06,0.11c0.01,0.04,0.02,0.08,0.01,0.12
					c0,0.04-0.01,0.08-0.04,0.11c-0.02,0.04-0.05,0.06-0.08,0.09c-0.04,0.03-0.07,0.07-0.09,0.12c-0.02,0.05-0.03,0.1-0.03,0.15
					c0,0.05,0.01,0.1,0.04,0.15s0.05,0.09,0.09,0.12c0.17,0.14,0.49,0.06,0.54-0.17c0.05-0.23-0.02-0.37,0.15-0.43
					s0.35,0.23,0.59,0.08c0.23-0.15-0.08-0.38-0.09-0.58c-0.01-0.2,0.18-0.25,0.3-0.14s0.3,0.27,0.43,0.16
					C83.68,43.44,83.66,43.28,83.52,43.17z"/>
				<path id="path24" class="st2" d="M86.28,43.79c0.15-0.18,0.14-0.51-0.22-0.69c-0.32-0.16,0.29-0.38,0.07-0.6
					c-0.22-0.23-0.34-0.12-0.72-0.14c-0.38-0.02-0.11-0.32-0.33-0.58c-0.11-0.13-0.27-0.12-0.44-0.03c-0.2,0.12-0.57,0.55-0.76,0.95
					c0.11-0.02,0.21-0.04,0.3-0.06c0.27-0.13,0.52-0.3,0.73-0.51c0,0,0.01,0,0.01-0.01c0,0,0.01,0,0.01,0s0,0.01,0,0.01
					c0,0,0,0.01,0,0.01c-0.18,0.18-0.39,0.33-0.62,0.46c0.31-0.05,0.54-0.05,0.76,0.04c0.18,0.05,0.67,0.12,0.86,0.04
					c0,0,0.01,0,0.02,0c0,0,0.01,0,0.01,0.01c0,0,0,0.01,0,0.02c0,0,0,0.01-0.01,0.01c-0.16,0.07-0.51,0.04-0.73,0
					c0.22,0.13,0.44,0.37,0.74,0.74c0,0,0,0.01,0,0.01s0,0.01-0.01,0.01c0,0-0.01,0-0.01,0c0,0-0.01,0-0.01-0.01
					c-0.29-0.37-0.51-0.59-0.73-0.73c0.16,0.17,0.16,0.3,0.15,0.47c0,0,0,0.01,0,0.01c0,0-0.01,0-0.01,0l0,0c0,0-0.01,0-0.01-0.01
					s0-0.01,0-0.01c0.01-0.2,0.01-0.33-0.26-0.54c-0.23-0.09-0.47-0.08-0.81-0.02c0.11,0.05,0.2,0.14,0.26,0.24c0,0,0,0,0,0.01
					s0,0,0,0.01c0,0,0,0,0,0.01l0,0c0,0,0,0-0.01,0c0,0,0,0-0.01,0s0,0-0.01,0l0,0c-0.07-0.11-0.17-0.2-0.3-0.25
					c-0.1,0.02-0.21,0.04-0.32,0.07c-0.05,0.11-0.08,0.22-0.1,0.33c0,0.05,0.02,0.1,0.05,0.15c0.03,0.05,0.06,0.09,0.1,0.11
					c0.42,0.32,0.46-0.13,0.81-0.17c0.29-0.03,0.17,0.26,0.31,0.5c0.14,0.24,0.3,0.05,0.41-0.03c0.11-0.08,0.17-0.13,0.28,0.09
					c0.03,0.05,0.06,0.09,0.11,0.13c0.05,0.03,0.1,0.05,0.16,0.06c0.05,0.01,0.11,0,0.17-0.02C86.2,43.86,86.25,43.83,86.28,43.79z"
					/>
				<path id="path26" class="st2" d="M81.67,43.01c0.24-0.04,0.45-0.12,0.45-0.26c0-0.09-0.16-0.14-0.11-0.32
					c0-0.04,0-0.07-0.02-0.11c0,0-0.01,0-0.01,0c-0.13-0.03-0.27-0.05-0.41-0.05c-0.16,0.11-0.3,0.26-0.42,0.41c0,0,0,0-0.01,0
					c0,0,0,0-0.01,0s-0.01,0-0.01,0l0,0c0,0,0,0,0-0.01s0,0,0-0.01c0,0,0,0,0-0.01c0.11-0.15,0.24-0.27,0.38-0.39
					c-0.23,0.01-0.46,0.05-0.68,0.14c-0.09,0.17-0.2,0.33-0.33,0.48c0,0,0,0-0.01,0s0,0-0.01,0c0,0,0,0-0.01,0c0,0,0,0,0,0
					s0,0,0-0.01c0,0,0,0,0-0.01s0,0,0-0.01c0,0,0,0,0,0c0.12-0.13,0.22-0.27,0.31-0.43c-0.22,0.08-0.44,0.13-0.67,0.13
					c-0.06,0-0.12,0-0.19-0.01c0,0-0.01,0-0.01-0.01s0-0.01,0-0.01s0-0.01,0.01-0.01c0,0,0.01,0,0.01,0c0.26,0.03,0.53,0,0.77-0.1
					c-0.07-0.03-0.15-0.06-0.21-0.11c-0.06-0.04-0.13-0.07-0.2-0.11c0,0,0,0,0,0l0,0c0,0,0,0,0-0.01c0,0,0,0,0-0.01
					s0-0.01,0.01-0.01c0,0,0.01,0,0.01,0c0.07,0.03,0.14,0.07,0.21,0.11c0.08,0.06,0.17,0.1,0.27,0.11l0.03-0.01
					c0.22-0.09,0.46-0.14,0.7-0.15c-0.16-0.1-0.44-0.27-0.44-0.27c0,0-0.01-0.01-0.01-0.01c0,0,0-0.01,0-0.01s0.01-0.01,0.01-0.01
					s0.01,0,0.01,0c0,0,0.38,0.24,0.5,0.31c0.12,0,0.23,0.02,0.35,0.04c-0.05-0.03-0.1-0.07-0.13-0.12
					c-0.03-0.04-0.05-0.09-0.07-0.14c-0.01-0.05-0.01-0.11,0-0.16c0.02-0.03,0.04-0.05,0.06-0.08c-0.19-0.23-0.56-0.49-0.73-0.37
					c-0.27,0.19-0.13,0.41-0.31,0.51c-0.06,0.04-0.13,0.05-0.21,0.05c-0.07,0-0.14-0.03-0.2-0.07c-0.03-0.02-0.07-0.03-0.11-0.03
					c-0.04,0-0.07,0.01-0.1,0.03c-0.03,0.02-0.05,0.05-0.07,0.08c-0.01,0.03-0.02,0.07-0.02,0.11c0,0.22,0.04,0.22-0.14,0.23
					c-0.17,0.02-0.5,0.04-0.55,0.31c-0.05,0.27,0.22,0.35,0.31,0.35c0.22,0.01,0.43-0.16,0.5,0.03c0.07,0.19,0.08,0.33,0.22,0.33
					c0.29-0.01,0.32-0.33,0.54-0.34c0.1,0,0.25,0.11,0.32,0.2C81.3,43.11,81.43,43.05,81.67,43.01z"/>
				<path id="path28" class="st2" d="M87.77,44.17c-0.46-0.16-1.06-0.41-1.06-0.41c-0.05,0.05-0.11,0.1-0.18,0.11
					c0.3,0.15,0.89,0.41,0.89,0.41C87.47,44.19,87.69,44.16,87.77,44.17z"/>
				<path id="path30" class="st2" d="M87.26,44.54c-0.54-0.05-0.85,0.23-0.58,0.26C87.21,44.87,87.56,44.56,87.26,44.54z"/>
				<path id="path32" class="st2" d="M87.96,44.27c-0.25-0.09-0.54,0.08-0.39,0.16C87.78,44.54,88.21,44.36,87.96,44.27z"/>
				<path id="path34" class="st2" d="M87.07,44.44c-0.2-0.09-0.59-0.26-0.95-0.43c-0.13,0.07-0.26,0.15-0.38,0.23
					c0.31,0.16,0.61,0.34,0.72,0.4c0.08-0.08,0.17-0.14,0.27-0.17C86.85,44.44,86.96,44.43,87.07,44.44z"/>
			</g>
			<path id="path38" class="st3" d="M85.94,24.62c-1.68,0-3.33,0.5-4.73,1.44c-1.4,0.94-2.49,2.27-3.14,3.82
				c-0.65,1.56-0.81,3.27-0.49,4.92c0.33,1.65,1.14,3.17,2.33,4.36s2.71,2,4.36,2.33c1.65,0.33,3.36,0.16,4.92-0.49
				c1.56-0.65,2.89-1.74,3.82-3.14c0.94-1.4,1.44-3.05,1.44-4.73c0-1.12-0.22-2.23-0.65-3.26c-0.43-1.03-1.06-1.97-1.84-2.76
				c-0.79-0.79-1.73-1.42-2.76-1.85C88.17,24.84,87.06,24.62,85.94,24.62z"/>
			
				<ellipse id="ellipse40" transform="matrix(2.241903e-03 -1 1 2.241903e-03 52.6203 119.0133)" class="st4" cx="85.95" cy="33.14" rx="7.91" ry="7.9"/>
			<ellipse id="ellipse42" class="st5" cx="85.95" cy="33.14" rx="6.7" ry="6.7"/>
			<ellipse id="ellipse44" class="st6" cx="85.95" cy="33.14" rx="5.48" ry="5.48"/>
			<g id="g126">
				<g id="g60">
					<path id="path46" class="st3" d="M85.8,41.81c0.11,0.11,0.18,0.24,0.21,0.39c0.15-0.09,0.37-0.33,0.3-0.44
						C86.25,41.67,85.99,41.69,85.8,41.81z"/>
					<g id="g58">
						<path id="path48" class="st3" d="M85.55,41.96c-0.01,0-0.02,0-0.03,0.01c-0.01,0-0.01,0.01-0.02,0.02c0,0.01,0,0.02,0,0.03
							c0,0.01,0.01,0.02,0.01,0.03c0.01,0.01,0.02,0.01,0.03,0.01s0.02,0,0.03,0c0.01,0,0.02-0.01,0.02-0.02
							c0-0.01,0.01-0.02,0.01-0.03c0-0.01,0-0.03-0.01-0.04C85.58,41.97,85.56,41.96,85.55,41.96z"/>
						<path id="path50" class="st3" d="M85.74,41.85c0-0.01,0-0.02-0.01-0.03c0-0.01-0.01-0.01-0.02-0.02c-0.01,0-0.02,0-0.03,0
							c-0.01,0-0.02,0.01-0.03,0.01c-0.01,0.01-0.01,0.02-0.01,0.03c0,0.01,0,0.02,0,0.03c0,0.01,0.01,0.02,0.02,0.02
							c0.01,0,0.02,0.01,0.03,0.01s0.01,0,0.02,0c0,0,0.01,0,0.02-0.01c0,0,0.01-0.01,0.01-0.02
							C85.74,41.87,85.74,41.86,85.74,41.85z"/>
						<path id="path52" class="st3" d="M85.73,41.98c-0.01,0-0.02,0-0.03,0.01c-0.01,0-0.01,0.01-0.02,0.02c0,0.01,0,0.02,0,0.03
							c0,0.01,0.01,0.02,0.01,0.03c0.01,0.01,0.02,0.01,0.03,0.01s0.02,0,0.03,0s0.02-0.01,0.02-0.02c0-0.01,0.01-0.02,0.01-0.03
							c0-0.01,0-0.01,0-0.02c0,0,0-0.01-0.01-0.02c0,0-0.01-0.01-0.02-0.01C85.74,41.98,85.73,41.98,85.73,41.98z"/>
						<path id="path54" class="st3" d="M85.85,42.11c-0.01,0-0.02,0-0.03,0.01c-0.01,0-0.01,0.01-0.02,0.02c0,0.01,0,0.02,0,0.03
							c0,0.01,0.01,0.02,0.01,0.03c0.01,0.01,0.02,0.01,0.03,0.01c0.01,0,0.02,0,0.03,0c0.01,0,0.02-0.01,0.02-0.02
							c0-0.01,0.01-0.02,0.01-0.03c0-0.01,0-0.03-0.01-0.04C85.88,42.12,85.87,42.11,85.85,42.11z"/>
						<path id="path56" class="st3" d="M85.68,42.14c-0.01,0-0.02,0-0.03,0.01c-0.01,0-0.01,0.01-0.02,0.02c0,0.01,0,0.02,0,0.03
							c0,0.01,0.01,0.02,0.01,0.03c0.01,0.01,0.02,0.01,0.03,0.01c0.01,0,0.02,0,0.03,0c0.01,0,0.02-0.01,0.02-0.02
							c0-0.01,0.01-0.02,0.01-0.03c0-0.01,0-0.03-0.01-0.04C85.7,42.15,85.69,42.14,85.68,42.14z"/>
					</g>
				</g>
				<g id="g72">
					<path id="path62" class="st3" d="M83.86,43.8c-0.11,0.11-0.18,0.33-0.08,0.4c0.13,0.08,0.35-0.16,0.35-0.16
						C84.06,43.95,83.97,43.86,83.86,43.8z"/>
					<g id="g70">
						<path id="path64" class="st3" d="M84.09,43.7c0-0.01,0-0.02-0.01-0.03c0-0.01-0.01-0.01-0.02-0.02c-0.01,0-0.02,0-0.03,0
							c-0.01,0-0.02,0.01-0.03,0.01c-0.01,0.01-0.01,0.02-0.01,0.03c0,0.01,0,0.02,0,0.03c0,0.01,0.01,0.02,0.02,0.02
							c0.01,0,0.02,0.01,0.03,0.01c0.01,0,0.03,0,0.04-0.01C84.08,43.73,84.09,43.71,84.09,43.7z"/>
						<path id="path66" class="st3" d="M84.21,43.64c-0.01,0-0.02,0-0.03,0.01c-0.01,0-0.01,0.01-0.02,0.02c0,0.01,0,0.02,0,0.03
							c0,0.01,0.01,0.02,0.01,0.03c0.01,0.01,0.02,0.01,0.03,0.01s0.02,0,0.03,0s0.02-0.01,0.02-0.02s0.01-0.02,0.01-0.03
							c0-0.01,0-0.03-0.01-0.04C84.23,43.65,84.22,43.64,84.21,43.64z"/>
						<path id="path68" class="st3" d="M84.18,43.82c-0.01,0-0.02,0-0.03,0.01c-0.01,0-0.01,0.01-0.02,0.02c0,0.01,0,0.02,0,0.03
							c0,0.01,0.01,0.02,0.01,0.03c0.01,0.01,0.02,0.01,0.03,0.01s0.02,0,0.03,0c0.01,0,0.02-0.01,0.02-0.02
							c0-0.01,0.01-0.02,0.01-0.03c0-0.01,0-0.01,0-0.02s0-0.01-0.01-0.02c0,0-0.01-0.01-0.02-0.01
							C84.2,43.82,84.19,43.82,84.18,43.82z"/>
					</g>
				</g>
				<g id="g90">
					<path id="path74" class="st3" d="M80.55,43.46c-0.12,0.24-0.1,0.53-0.01,0.6c0.11,0.09,0.43-0.28,0.47-0.39
						C80.88,43.55,80.72,43.47,80.55,43.46z"/>
					<g id="g88">
						<path id="path76" class="st3" d="M80.73,43.34c0,0.01,0,0.02,0.01,0.03c0,0.01,0.01,0.01,0.02,0.02c0.01,0,0.02,0,0.03,0
							c0.01,0,0.02-0.01,0.03-0.01c0.01-0.01,0.01-0.02,0.01-0.03c0-0.01,0-0.02,0-0.03c0-0.01-0.01-0.02-0.02-0.02
							c-0.01,0-0.02-0.01-0.03-0.01c-0.01,0-0.03,0-0.04,0.01C80.74,43.32,80.73,43.33,80.73,43.34z"/>
						<path id="path78" class="st3" d="M80.89,43.3c0,0.01,0,0.02,0.01,0.03c0,0.01,0.01,0.01,0.02,0.02c0.01,0,0.02,0,0.03,0
							c0.01,0,0.02-0.01,0.03-0.01c0.01-0.01,0.01-0.02,0.01-0.03c0-0.01,0-0.02,0-0.03c0-0.01-0.01-0.02-0.02-0.02
							c-0.01,0-0.02-0.01-0.03-0.01c-0.01,0-0.03,0-0.04,0.01C80.89,43.27,80.89,43.29,80.89,43.3z"/>
						<path id="path80" class="st3" d="M80.99,43.42c-0.01,0-0.02,0-0.03,0.01c-0.01,0-0.01,0.01-0.02,0.02c0,0.01,0,0.02,0,0.03
							c0,0.01,0.01,0.02,0.01,0.03c0.01,0.01,0.02,0.01,0.03,0.01c0.01,0,0.02,0,0.03,0s0.02-0.01,0.02-0.02
							c0-0.01,0.01-0.02,0.01-0.03c0-0.01,0-0.03-0.01-0.04C81.02,43.42,81,43.42,80.99,43.42z"/>
						<path id="path82" class="st3" d="M81.15,43.42c-0.01,0-0.02,0-0.03,0.01c-0.01,0-0.01,0.01-0.02,0.02c0,0.01,0,0.02,0,0.03
							c0,0.01,0.01,0.02,0.01,0.03c0.01,0.01,0.02,0.01,0.03,0.01c0.01,0,0.02,0,0.03,0c0.01,0,0.02-0.01,0.02-0.02
							c0-0.01,0.01-0.02,0.01-0.03c0-0.01,0-0.03-0.01-0.04C81.18,43.43,81.16,43.42,81.15,43.42z"/>
						<path id="path84" class="st3" d="M81.15,43.26c0-0.01,0-0.02-0.01-0.03c0-0.01-0.01-0.01-0.02-0.02c-0.01,0-0.02,0-0.03,0
							c-0.01,0-0.02,0.01-0.03,0.01c-0.01,0.01-0.01,0.02-0.01,0.03c0,0.01,0,0.02,0,0.03c0,0.01,0.01,0.02,0.02,0.02
							c0.01,0,0.02,0.01,0.03,0.01c0.01,0,0.03,0,0.04-0.01C81.15,43.29,81.15,43.27,81.15,43.26z"/>
						<path id="path86" class="st3" d="M80.87,43.08c-0.01,0-0.02,0-0.03,0.01c-0.01,0-0.01,0.01-0.02,0.02c0,0.01,0,0.02,0,0.03
							c0,0.01,0.01,0.02,0.01,0.03c0.01,0.01,0.02,0.01,0.03,0.01c0.01,0,0.02,0,0.03,0c0.01,0,0.02-0.01,0.02-0.02
							c0-0.01,0.01-0.02,0.01-0.03c0-0.01,0-0.03-0.01-0.04C80.9,43.09,80.88,43.08,80.87,43.08z"/>
					</g>
				</g>
				<g id="g108">
					<path id="path92" class="st3" d="M78.79,41.3c0,0.13,0.31,0.25,0.57,0.25c0.03-0.15,0.03-0.3,0-0.45
						C79.13,41.08,78.79,41.17,78.79,41.3z"/>
					<g id="g106">
						<path id="path94" class="st3" d="M79.48,41.54c-0.01,0-0.02,0-0.03,0.01c-0.01,0-0.01,0.01-0.02,0.02c0,0.01,0,0.02,0,0.03
							c0,0.01,0.01,0.02,0.01,0.03c0.01,0.01,0.02,0.01,0.03,0.01c0.01,0,0.02,0,0.03,0c0.01,0,0.02-0.01,0.02-0.02
							c0-0.01,0.01-0.02,0.01-0.03c0-0.01,0-0.03-0.01-0.04C79.51,41.55,79.5,41.54,79.48,41.54z"/>
						<path id="path96" class="st3" d="M79.64,41.45c-0.01,0-0.02,0-0.03,0.01c-0.01,0-0.01,0.01-0.02,0.02c0,0.01,0,0.02,0,0.03
							c0,0.01,0.01,0.02,0.01,0.03c0.01,0.01,0.02,0.01,0.03,0.01c0.01,0,0.02,0,0.03,0c0.01,0,0.02-0.01,0.02-0.02
							c0-0.01,0.01-0.02,0.01-0.03c0-0.01,0-0.03-0.01-0.04C79.66,41.46,79.65,41.45,79.64,41.45z"/>
						<path id="path98" class="st3" d="M79.78,41.36c-0.01,0-0.02,0-0.03,0.01c-0.01,0-0.01,0.01-0.02,0.02c0,0.01,0,0.02,0,0.03
							c0,0.01,0.01,0.02,0.01,0.03c0.01,0.01,0.02,0.01,0.03,0.01c0.01,0,0.02,0,0.03,0c0.01,0,0.02-0.01,0.02-0.02
							c0-0.01,0.01-0.02,0.01-0.03c0-0.01,0-0.03-0.01-0.04C79.81,41.36,79.8,41.36,79.78,41.36z"/>
						<path id="path100" class="st3" d="M79.51,41.33c-0.01,0-0.02,0-0.03,0.01c-0.01,0-0.01,0.01-0.02,0.02c0,0.01,0,0.02,0,0.03
							c0,0.01,0.01,0.02,0.01,0.03c0.01,0.01,0.02,0.01,0.03,0.01s0.02,0,0.03,0s0.02-0.01,0.02-0.02s0.01-0.02,0.01-0.03
							c0-0.01,0-0.03-0.01-0.04C79.53,41.34,79.52,41.33,79.51,41.33z"/>
						<path id="path102" class="st3" d="M79.66,41.22c-0.01,0-0.02,0-0.03,0.01c-0.01,0-0.01,0.01-0.02,0.02c0,0.01,0,0.02,0,0.03
							c0,0.01,0.01,0.02,0.01,0.03c0.01,0.01,0.02,0.01,0.03,0.01s0.02,0,0.03,0s0.02-0.01,0.02-0.02c0-0.01,0.01-0.02,0.01-0.03
							c0-0.01,0-0.03-0.01-0.04C79.69,41.23,79.67,41.22,79.66,41.22z"/>
						<path id="path104" class="st3" d="M79.52,41.1c-0.01,0-0.02,0-0.03,0.01s-0.01,0.01-0.02,0.02c0,0.01,0,0.02,0,0.03
							c0,0.01,0.01,0.02,0.01,0.03c0.01,0.01,0.02,0.01,0.03,0.01c0.01,0,0.02,0,0.03,0c0.01,0,0.02-0.01,0.02-0.02
							s0.01-0.02,0.01-0.03c0-0.01,0-0.03-0.01-0.04C79.55,41.1,79.53,41.1,79.52,41.1z"/>
					</g>
				</g>
				<g id="g124">
					<path id="path110" class="st3" d="M77.28,37.05c-0.18-0.15-0.51-0.15-0.56-0.08c-0.05,0.08,0.13,0.3,0.31,0.43
						C77.14,37.3,77.22,37.18,77.28,37.05z"/>
					<g id="g122">
						<path id="path112" class="st3" d="M77.12,37.45c-0.01,0-0.03,0-0.04,0.01s-0.01,0.02-0.01,0.04s0,0.03,0.01,0.04
							s0.02,0.01,0.04,0.01c0.01,0,0.03,0,0.04-0.01c0.01-0.01,0.01-0.02,0.01-0.04s0-0.03-0.01-0.04
							C77.15,37.46,77.13,37.45,77.12,37.45z"/>
						<path id="path114" class="st3" d="M77.28,37.45c-0.01,0-0.03,0-0.04,0.01c-0.01,0.01-0.01,0.02-0.01,0.04s0,0.03,0.01,0.04
							c0.01,0.01,0.02,0.01,0.04,0.01c0.01,0,0.03,0,0.04-0.01c0.01-0.01,0.01-0.02,0.01-0.04s0-0.03-0.01-0.04
							C77.31,37.46,77.3,37.45,77.28,37.45z"/>
						<path id="path116" class="st3" d="M77.27,37.38c0.01,0,0.03,0,0.04-0.01c0.01-0.01,0.01-0.02,0.01-0.04
							c0-0.01,0-0.03-0.01-0.04c-0.01-0.01-0.02-0.01-0.04-0.01c-0.01,0-0.03,0-0.04,0.01c-0.01,0.01-0.01,0.02-0.01,0.04
							c0,0.01,0,0.01,0,0.02c0,0,0,0.01,0.01,0.02s0.01,0.01,0.02,0.01C77.26,37.38,77.26,37.38,77.27,37.38z"/>
						<path id="path118" class="st3" d="M77.46,37.28c-0.01,0-0.03,0-0.04,0.01c-0.01,0.01-0.01,0.02-0.01,0.04s0,0.03,0.01,0.04
							c0.01,0.01,0.02,0.01,0.04,0.01c0.01,0,0.03,0,0.04-0.01c0.01-0.01,0.01-0.02,0.01-0.04s0-0.03-0.01-0.04
							C77.48,37.29,77.47,37.28,77.46,37.28z"/>
						<path id="path120" class="st3" d="M77.46,37.14c0-0.01,0-0.01,0-0.02c0,0,0-0.01-0.01-0.02s-0.01-0.01-0.02-0.01
							c0,0-0.01,0-0.02,0c-0.01,0-0.03,0-0.04,0.01c-0.01,0.01-0.01,0.02-0.01,0.04s0,0.03,0.01,0.04c0.01,0.01,0.02,0.01,0.04,0.01
							c0.01,0,0.03,0,0.04-0.01C77.45,37.16,77.46,37.15,77.46,37.14z"/>
					</g>
				</g>
			</g>
			<g id="g144">
				<path id="path128" class="st3" d="M92.68,30.66c0.17,0,0.31-0.14,0.31-0.31c0-0.17-0.14-0.31-0.31-0.31
					c-0.17,0-0.31,0.14-0.31,0.31C92.37,30.52,92.51,30.66,92.68,30.66z"/>
				<path id="path130" class="st3" d="M88.86,26.69c0.05-0.02,0.11-0.06,0.14-0.11s0.05-0.11,0.05-0.17c0-0.06-0.02-0.12-0.05-0.17
					c-0.04-0.05-0.08-0.09-0.14-0.11c-0.05-0.02-0.12-0.03-0.18-0.02c-0.06,0.01-0.11,0.04-0.16,0.09c-0.05,0.05-0.07,0.1-0.09,0.16
					c-0.01,0.06,0,0.12,0.02,0.18c0.03,0.08,0.09,0.14,0.17,0.17C88.7,26.73,88.78,26.73,88.86,26.69z"/>
				<path id="path132" class="st3" d="M83.28,26.69c0.05-0.02,0.11-0.06,0.14-0.11c0.04-0.05,0.05-0.11,0.05-0.17
					c0-0.06-0.02-0.12-0.05-0.17c-0.04-0.05-0.08-0.09-0.14-0.11c-0.05-0.02-0.12-0.03-0.18-0.02c-0.06,0.01-0.11,0.04-0.16,0.09
					c-0.05,0.05-0.07,0.1-0.09,0.16c-0.01,0.06,0,0.12,0.02,0.18c0.03,0.08,0.09,0.14,0.17,0.17C83.11,26.73,83.2,26.73,83.28,26.69
					z"/>
				<path id="path134" class="st3" d="M79.21,30.66c0.17,0,0.31-0.14,0.31-0.31c0-0.17-0.14-0.31-0.31-0.31
					c-0.17,0-0.31,0.14-0.31,0.31C78.9,30.52,79.04,30.66,79.21,30.66z"/>
				<path id="path136" class="st3" d="M79.21,36.24c0.17,0,0.31-0.14,0.31-0.31c0-0.17-0.14-0.31-0.31-0.31
					c-0.17,0-0.31,0.14-0.31,0.31C78.9,36.1,79.04,36.24,79.21,36.24z"/>
				<path id="path138" class="st3" d="M83.04,39.59c-0.05,0.02-0.11,0.06-0.14,0.11c-0.03,0.05-0.05,0.11-0.05,0.17
					c0,0.06,0.02,0.12,0.05,0.17c0.04,0.05,0.08,0.09,0.14,0.11c0.05,0.02,0.12,0.03,0.18,0.02c0.06-0.01,0.11-0.04,0.16-0.09
					c0.05-0.05,0.07-0.1,0.09-0.16c0.01-0.06,0-0.12-0.02-0.18c-0.03-0.08-0.09-0.14-0.17-0.17C83.2,39.56,83.11,39.56,83.04,39.59z
					"/>
				<path id="path140" class="st3" d="M88.62,39.59c-0.05,0.02-0.11,0.06-0.14,0.11c-0.03,0.05-0.05,0.11-0.05,0.17
					c0,0.06,0.02,0.12,0.05,0.17c0.04,0.05,0.08,0.09,0.14,0.11c0.05,0.02,0.12,0.03,0.18,0.02c0.06-0.01,0.11-0.04,0.16-0.09
					c0.05-0.05,0.07-0.1,0.09-0.16c0.01-0.06,0-0.12-0.02-0.18c-0.01-0.04-0.04-0.07-0.07-0.1c-0.03-0.03-0.06-0.05-0.1-0.07
					c-0.04-0.01-0.08-0.02-0.12-0.02C88.7,39.57,88.66,39.57,88.62,39.59z"/>
				<path id="path142" class="st3" d="M92.68,36.24c0.17,0,0.31-0.14,0.31-0.31c0-0.17-0.14-0.31-0.31-0.31
					c-0.17,0-0.31,0.14-0.31,0.31C92.37,36.1,92.51,36.24,92.68,36.24z"/>
			</g>
			<polygon id="polygon146" class="st3" points="93.85,33.1 89.88,31.48 91.5,27.52 87.56,29.18 85.9,25.23 84.28,29.2 80.32,27.58 
				81.98,31.53 78.03,33.18 82,34.8 80.38,38.76 84.33,37.1 85.98,41.04 87.6,37.08 91.56,38.7 89.9,34.76 			"/>
			<polygon id="polygon148" class="st7" points="87.44,36.71 91.02,38.17 89.52,34.6 93.09,33.1 89.51,31.64 90.97,28.06 
				87.4,29.56 85.9,25.99 84.44,29.57 80.86,28.11 82.36,31.68 78.79,33.18 82.38,34.64 80.91,38.22 84.48,36.72 85.98,40.29 			"/>
			<path id="path150" class="st5" d="M86.34,34.6c0-1.46-0.6-1.83-0.6-3.27c0.01-0.56,0.12-1.12,0.32-1.64
				c-0.12,1.46,1.11,2.38,1.11,4.33c0,1.23-0.48,1.94-0.84,1.94c-0.23,0-0.22-0.15-0.33-0.15s-0.22,0.18-0.46,0.18
				c-0.24,0-1.03-0.39-1.15-2.11c-0.14,0.35-0.02,0.85,0.05,1.12c-0.49-0.87-0.46-1.93,0.25-3c-0.14,1.12-0.05,2.02,0.29,2.84
				c0.07,0.17,0.2,0.27,0.32,0.17c0.11-0.09,0-0.27-0.09-0.47s-1.04-2.3,0.39-4.03c-0.16,1.51,0.44,2.46,0.44,3.17
				s-0.43,1.66-0.01,1.66C86.28,35.33,86.34,34.83,86.34,34.6z"/>
			<path id="path152" class="st5" d="M86.85,35.65c0.35-0.26,0.64-0.6,0.84-0.99c0.2-0.39,0.31-0.82,0.32-1.26
				c0-1.22-1.23-2.21-1.43-2.91c0,1.13,0.77,1.84,0.77,3.35C87.34,35.24,86.85,35.65,86.85,35.65z"/>
			<g id="g248">
				<path id="path154" class="st8" d="M85.55,43.65c-0.02,0-0.05,0.01-0.06,0.03c-0.02,0.01-0.04,0.03-0.05,0.05
					c-0.06,0.08-0.15,0.12-0.25,0.14c-0.03,0-0.06-0.01-0.09-0.02c-0.03-0.01-0.05-0.03-0.07-0.05c-0.4,0.19-0.76,0.4-1.04,0.57
					c0.12,0,0.23,0.04,0.33,0.11c0.29-0.19,0.79-0.47,1.31-0.74C85.59,43.67,85.56,43.65,85.55,43.65z"/>
				<path id="path156" class="st8" d="M86.93,43.02c-0.18,0.05-0.39,0.12-0.6,0.21c0.04,0.04,0.06,0.09,0.08,0.14
					c0.25-0.11,0.47-0.19,0.67-0.26C87.03,43.1,86.98,43.06,86.93,43.02z"/>
				<path id="path158" class="st8" d="M84.52,44.56c0.2-0.05,0.41-0.03,0.6,0.04c0.27-0.23,0.56-0.44,0.86-0.63
					c-0.1-0.01-0.18-0.05-0.26-0.11C85.31,44.07,84.91,44.3,84.52,44.56z"/>
				<path id="path160" class="st8" d="M86.27,42.5c0.21-0.27,0.43-0.53,0.68-0.76c-0.32,0.1-0.64,0.33-0.89,0.55
					c0.06,0.03,0.11,0.08,0.16,0.13C86.24,42.45,86.26,42.48,86.27,42.5z"/>
				<path id="path162" class="st8" d="M94.32,37.42c0.19-0.22,0.22-0.42,0.22-1.16c-0.12,0.2-0.46,0.65-0.51,0.87
					C93.91,37.54,94.13,37.64,94.32,37.42z"/>
				<path id="path164" class="st8" d="M94.16,38.17c0.19-0.17,0.34-0.47,0.41-0.8c-0.22,0.27-0.46,0.27-0.62,0.45
					C93.64,38.16,93.97,38.34,94.16,38.17z"/>
				<path id="path166" class="st8" d="M93.88,37.68c0.05-0.15-0.05-0.45-0.01-0.69c-0.2,0.22-0.34,0.64-0.26,0.83
					C93.69,38.02,93.83,37.82,93.88,37.68z"/>
				<path id="path168" class="st8" d="M93.43,38.34c0.17-0.18-0.09-0.57,0.02-1.07c0,0-0.34,0.55-0.38,0.76
					C92.95,38.71,93.26,38.52,93.43,38.34z"/>
				<path id="path170" class="st8" d="M93.73,38.85c0.17-0.01,0.39-0.22,0.61-0.64c-0.18,0.21-0.65,0.12-0.78,0.28
					c-0.03,0.03-0.05,0.07-0.06,0.11c-0.01,0.05,0,0.09,0.01,0.13c0.02,0.04,0.05,0.07,0.09,0.1
					C93.64,38.85,93.69,38.86,93.73,38.85z"/>
				<path id="path172" class="st8" d="M93.14,39.39c-0.12,0.14-0.26,0.28-0.37,0.39c-0.26,0.18-0.59,0.17-0.77,0.31
					c-0.3,0.22-0.11,0.34,0.11,0.29c0.15-0.04,0.32-0.16,0.63-0.52c0.15-0.14,0.29-0.28,0.42-0.43c0.02,0.05,0.06,0.1,0.11,0.12
					c0.05,0.02,0.11,0.03,0.16,0.01c0.22-0.05,0.32-0.13,0.73-0.74c-0.16,0.09-0.69,0.1-0.91,0.32c-0.04,0.03-0.07,0.07-0.09,0.11
					C93.14,39.3,93.13,39.34,93.14,39.39z"/>
				<path id="path174" class="st8" d="M91.45,40.33c0.02-0.25-0.05-0.22,0.18-0.65c-0.1,0.07-0.52,0.4-0.52,0.72
					C91.12,40.85,91.43,40.58,91.45,40.33z"/>
				<path id="path176" class="st8" d="M90.83,40.9c0.21-0.21,0.06-0.43,0.27-0.83c0,0-0.36,0.26-0.49,0.57
					C90.48,40.95,90.62,41.11,90.83,40.9z"/>
				<path id="path178" class="st8" d="M90.32,41.28c0.27-0.27,0.08-0.48,0.25-0.81c-0.14,0.15-0.35,0.29-0.48,0.52
					C89.94,41.26,90.05,41.55,90.32,41.28z"/>
				<path id="path180" class="st8" d="M89.68,41.7c0.31-0.27,0.11-0.56,0.48-0.99c-0.23,0.11-0.65,0.48-0.78,0.75
					C89.25,41.72,89.37,41.98,89.68,41.7z"/>
				<path id="path182" class="st8" d="M89,42.03c0.22-0.22,0.24-0.59,0.5-1.04c-0.15,0.1-0.65,0.38-0.84,0.71
					C88.43,42.09,88.78,42.25,89,42.03z"/>
				<path id="path184" class="st8" d="M88.15,42.45c0.43-0.42,0.24-0.55,0.57-1.1c-0.36,0.22-0.67,0.51-0.92,0.86
					C87.69,42.39,87.77,42.82,88.15,42.45z"/>
				<path id="path186" class="st8" d="M87.01,42.64c-0.15,0.32,0.12,0.47,0.34,0.27c0.22-0.21,0.31-0.73,0.76-1.38
					C87.8,41.71,87.23,42.17,87.01,42.64z"/>
				<path id="path188" class="st8" d="M86.69,43c0.37-0.38,0.27-0.69,0.86-1.31c-0.44,0.16-1.12,0.69-1.3,1.07
					C86.07,43.12,86.44,43.25,86.69,43z"/>
				<path id="path190" class="st8" d="M84.49,44.65c-0.27,0.12,0.15,0.24,0.48,0.12C85.31,44.66,84.71,44.55,84.49,44.65z"/>
				<path id="path192" class="st8" d="M83.88,44.44c-0.31,0.07,0.01,0.2,0.24,0.15C84.34,44.55,84.07,44.4,83.88,44.44z"/>
				<path id="path194" class="st8" d="M88.5,44.7c0.33,0.01,0.67-0.05,0.98-0.19c-0.14-0.02-0.27-0.06-0.4-0.1
					C88.91,44.55,88.71,44.65,88.5,44.7z"/>
				<path id="path196" class="st8" d="M89.19,43.45c-0.14,0.1-0.28,0.18-0.43,0.26c0.62,0.07,1.25,0.1,1.88,0.07
					c0.1-0.13,0.18-0.27,0.24-0.42C90.32,43.44,89.75,43.47,89.19,43.45z"/>
				<path id="path198" class="st8" d="M90.08,44.09c0.01,0,0.4-0.22,0.4-0.22h-0.23C90.19,43.94,90.13,44.02,90.08,44.09z"/>
				<path id="path200" class="st8" d="M90.17,43.02l-0.1,0.03c-0.19,0.06-0.36,0.11-0.52,0.16c0.32,0.03,0.72-0.04,1.21-0.18
					c-0.21-0.01-0.42-0.07-0.6-0.15c-0.11-0.05-0.22-0.05-0.33-0.01l-0.03,0.01c-0.24,0.08-0.48,0.15-0.73,0.2
					c0.12,0.06,0.25,0.11,0.38,0.13c0.18-0.05,0.38-0.11,0.61-0.18l0.1-0.03c0,0,0.01,0,0.02,0c0,0,0.01,0.01,0.01,0.01
					c0,0,0,0.01,0,0.02C90.18,43.02,90.17,43.02,90.17,43.02L90.17,43.02z"/>
				<path id="path202" class="st8" d="M91.15,41.76c0.12-0.05,0.24-0.11,0.35-0.16c-0.1-0.02-0.21-0.03-0.31-0.03
					c-0.11,0.06-0.22,0.11-0.34,0.15c-0.02,0.02-0.03,0.05-0.04,0.07c0.08,0.02,0.17,0.01,0.25,0
					C91.07,41.79,91.1,41.78,91.15,41.76z"/>
				<path id="path204" class="st8" d="M91.56,41.61c-0.07,0.04-0.14,0.07-0.2,0.11c-0.18,0.11-0.36,0.22-0.54,0.3
					c0.04,0.08,0.14,0.14,0.29,0.14c0.33,0,0.65-0.15,1.23-0.5C92.08,41.69,91.82,41.67,91.56,41.61z"/>
				<path id="path206" class="st8" d="M92.16,41.03c-0.08-0.01-0.16-0.01-0.23-0.01c-0.13,0.08-0.27,0.15-0.41,0.21
					c-0.01,0.04-0.01,0.08,0,0.12C91.74,41.26,91.95,41.15,92.16,41.03z"/>
				<path id="path208" class="st8" d="M92.23,41.04c-0.22,0.14-0.45,0.26-0.7,0.35c0.03,0.05,0.08,0.1,0.14,0.12
					c0.07-0.04,0.14-0.08,0.22-0.13c0,0,0.01,0,0.01,0c0,0,0.01,0,0.01,0.01c0,0,0,0.01,0,0.01s0,0.01-0.01,0.01
					c-0.07,0.04-0.13,0.08-0.19,0.11c0.05,0.01,0.09,0.01,0.13,0c0.54-0.07,0.8-0.27,1.19-0.57C92.78,41.04,92.5,41.06,92.23,41.04z
					"/>
				<path id="path210" class="st8" d="M92.73,40.37c-0.03,0.02-0.05,0.03-0.08,0.05c-0.14,0.11-0.28,0.22-0.44,0.3
					c0,0.03,0.01,0.06,0.02,0.09c0.15-0.08,0.29-0.18,0.42-0.29c0,0,0.01,0,0.01,0s0.01,0,0.01,0.01c0,0,0,0.01,0,0.01
					c0,0,0,0.01-0.01,0.01c-0.13,0.11-0.27,0.21-0.42,0.29c0.04,0.03,0.08,0.04,0.13,0.05c0.05,0,0.09,0,0.14-0.01
					c0.51-0.11,0.89-0.56,0.89-0.56C93.19,40.36,92.96,40.39,92.73,40.37z"/>
				<path id="path212" class="st8" d="M92.72,40.09c0.01,0.04,0.03,0.07,0.05,0.09c0.02,0.03,0.05,0.05,0.09,0.05
					c0.12-0.08,0.25-0.18,0.43-0.33c0,0,0.01,0,0.01,0c0,0,0.01,0,0.01,0.01c0,0,0,0.01,0,0.01c0,0,0,0.01-0.01,0.01
					c-0.16,0.14-0.28,0.24-0.4,0.32c0.05,0,0.09,0,0.13,0c0.22-0.05,0.4-0.19,0.83-0.66c-0.24,0.02-0.49,0.05-0.72,0.11
					C93.02,39.84,92.88,39.97,92.72,40.09z"/>
				<path id="path214" class="st8" d="M93.09,39.71c-0.06,0.01-0.13,0.04-0.19,0.07c-0.05,0.03-0.09,0.06-0.12,0.11
					s-0.05,0.1-0.06,0.15C92.85,39.94,92.97,39.83,93.09,39.71z"/>
				<path id="path216" class="st8" d="M92.68,38.68L92.68,38.68c0,0.01,0,0.01,0.01,0.01c0,0,0,0,0,0.01s0,0,0,0.01
					c-0.06,0.08-0.13,0.16-0.19,0.22c0,0.03,0,0.06,0.02,0.09c0.01,0.03,0.03,0.05,0.05,0.07c0.12-0.14,0.25-0.3,0.35-0.4
					c0.02-0.17,0-0.38,0.01-0.57c-0.12,0.11-0.41,0.49-0.43,0.76c0.05-0.05,0.1-0.12,0.15-0.18l0,0c0,0,0,0,0.01,0
					S92.66,38.68,92.68,38.68C92.67,38.68,92.68,38.68,92.68,38.68z"/>
				<path id="path218" class="st8" d="M92.81,39.01c0.05-0.07,0.09-0.16,0.1-0.25c-0.09,0.1-0.2,0.23-0.3,0.35
					c0.04,0,0.08,0,0.11-0.02C92.76,39.08,92.79,39.05,92.81,39.01z"/>
				<path id="path220" class="st8" d="M91.56,40.5c-0.3,0.17-0.17,0.32,0.08,0.31c0.25-0.01,0.51-0.09,0.95-0.44
					C92.28,40.49,91.82,40.36,91.56,40.5z"/>
				<path id="path222" class="st8" d="M90.88,40.97c-0.17,0.15-0.11,0.31,0.11,0.31c0.22,0,0.44-0.04,0.96-0.34
					C91.46,40.98,91.14,40.75,90.88,40.97z"/>
				<path id="path224" class="st8" d="M91.37,41.4c-0.37,0.04-0.85-0.16-1.03-0.03c-0.11,0.08-0.13,0.25,0.07,0.3
					C90.72,41.75,90.96,41.64,91.37,41.4z"/>
				<path id="path226" class="st8" d="M87.49,42.97c-0.35,0.03-0.42,0.49,0.1,0.55c0.52,0.06,1.12-0.03,1.78-0.28
					C88.56,43.31,87.92,42.93,87.49,42.97z"/>
				<path id="path228" class="st8" d="M91.59,40.24c0.07,0.06,0.2-0.02,0.34-0.21c0.14-0.19-0.05-0.38,0.49-1.03
					c-0.22,0.22-0.43,0.45-0.63,0.7C91.6,39.94,91.52,40.18,91.59,40.24z"/>
				<path id="path230" class="st8" d="M92.16,39.59c-0.19,0.26,0.08,0.43,0.27,0.24c0.07-0.07,0.13-0.16,0.19-0.24
					c0.17-0.15,0.47-0.45,0.69-0.68l0,0v0v0c0,0,0,0,0,0c0,0,0,0,0,0h0h0c0,0,0,0,0,0c-0.19,0.21-0.44,0.46-0.61,0.62
					c0.06-0.11,0.13-0.23,0.2-0.37c0.16-0.16,0.31-0.34,0.43-0.53v0v0v0l0,0h0h0h0l0,0c-0.13,0.19-0.27,0.36-0.43,0.53
					C92.74,39.17,92.33,39.37,92.16,39.59z"/>
				<path id="path232" class="st8" d="M86.61,43.44c0.76,0.35,2.39,0.92,2.96,1c0.06-0.28,0.11-0.54,0.11-0.54
					c-1.14-0.1-1.9-0.19-2.89-0.52C86.72,43.4,86.61,43.44,86.61,43.44z"/>
				<path id="path234" class="st8" d="M89.31,42.65c-0.05,0-0.11,0-0.16,0c0.22,0.07,0.46,0.11,0.7,0.11
					c-0.06-0.03-0.12-0.07-0.17-0.11C89.55,42.64,89.43,42.65,89.31,42.65z"/>
				<path id="path236" class="st8" d="M89.72,41.79c-0.27,0.19-0.13,0.37,0.1,0.38c0.22,0.02,0.68-0.05,1.13-0.32
					C90.73,41.89,90.07,41.54,89.72,41.79z"/>
				<path id="path238" class="st8" d="M89.04,42.11c-0.22,0.05-0.47,0.4-0.08,0.45c0.42,0.06,0.85,0,1.24-0.16
					C89.8,42.36,89.37,42.03,89.04,42.11z"/>
				<path id="path240" class="st8" d="M90.32,42.34c0.18-0.04,0.35-0.1,0.52-0.16c-0.06-0.03-0.12-0.06-0.17-0.1
					c-0.25,0.11-0.51,0.16-0.78,0.16c-0.02,0-0.04,0-0.06,0l0,0C89.96,42.29,90.14,42.36,90.32,42.34z"/>
				<path id="path242" class="st8" d="M90.89,42.2c-0.14,0.05-0.27,0.1-0.39,0.13c-0.24,0.11-0.48,0.2-0.73,0.27
					c0.03,0.04,0.06,0.06,0.1,0.09c0.04,0.02,0.08,0.04,0.12,0.04c0.01,0,0.02,0,0.03,0c0.28-0.05,0.55-0.14,0.8-0.27
					c0,0,0.01,0,0.01,0c0,0,0.01,0,0.01,0.01s0,0.01,0,0.02c0,0,0,0.01-0.01,0.01c-0.22,0.11-0.45,0.2-0.69,0.25
					c0.44,0.04,0.88-0.09,1.68-0.49C91.33,42.34,91.07,42.28,90.89,42.2z"/>
				<path id="path244" class="st8" d="M88.23,42.54c-0.35,0.07-0.37,0.38-0.07,0.47c0.29,0.08,0.75,0.08,1.64-0.2
					C89.24,42.8,88.6,42.46,88.23,42.54z"/>
				<path id="path246" class="st8" d="M88.95,43.09c-0.1,0.02-0.2,0.03-0.31,0.03c0.17,0.04,0.35,0.06,0.53,0.06
					C89.09,43.16,89.02,43.13,88.95,43.09z"/>
			</g>
		</g>
	</g>
</g>
</svg>
