<svg xmlns="http://www.w3.org/2000/svg" viewBox="0 0 51.27 17.78"><defs><style>.cls-1,.cls-2{fill:#2e929d;}.cls-2{fill-rule:evenodd;}</style></defs><g id="Layer_2" data-name="Layer 2"><g id="Layer_1-2" data-name="Layer 1"><path class="cls-1" d="M49.31,11.5a3.81,3.81,0,0,1-1.17.16c-1.07,0-1.68-.44-1.68-1.21,0-1.23,1.33-1.37,2.85-1.44Zm2,1v-5c0-2.09-1.17-2.91-3.26-2.91a8.35,8.35,0,0,0-3,.59l.52,1.4a6.43,6.43,0,0,1,2.29-.49c.94,0,1.53.32,1.53,1.17v.42c-2.47.14-4.8.58-4.8,2.81,0,1.67,1.23,2.65,3.69,2.65A7.49,7.49,0,0,0,51.27,12.54ZM43.82,4.66a7.64,7.64,0,0,0-1.07-.07,9.43,9.43,0,0,0-3.34.59V13h2.07V6.42a3.09,3.09,0,0,1,1-.16,3.33,3.33,0,0,1,.93.12Zm-8.2,6.84a3.86,3.86,0,0,1-1.17.16c-1.08,0-1.69-.44-1.69-1.21,0-1.23,1.34-1.37,2.86-1.44Zm2,1v-5c0-2.09-1.17-2.91-3.27-2.91a8.44,8.44,0,0,0-3,.59l.52,1.4a6.47,6.47,0,0,1,2.29-.49c.94,0,1.54.32,1.54,1.17v.42c-2.48.14-4.8.58-4.8,2.81,0,1.67,1.23,2.65,3.69,2.65A7.49,7.49,0,0,0,37.58,12.54ZM29.51,9.77c0-1.95-1.56-2.71-2.76-3.3-.81-.39-1.55-.8-1.55-1.56s.59-1.29,1.52-1.29a3.93,3.93,0,0,1,1.81.48l.66-1.73a5.25,5.25,0,0,0-2.56-.59c-2.2,0-3.57,1.29-3.57,3.25s1.53,2.75,2.76,3.31c.81.36,1.51.76,1.51,1.53s-.66,1.34-1.68,1.34a4.2,4.2,0,0,1-2-.52l-.7,1.85a6.49,6.49,0,0,0,2.82.6C28.13,13.14,29.51,11.77,29.51,9.77Z"/><path class="cls-1" d="M51.23,17c0-.43-.39-.59-.73-.73s-.57-.23-.57-.48.24-.41.56-.41a1.33,1.33,0,0,1,.51.11l.12-.24a1.35,1.35,0,0,0-.64-.14c-.53,0-.9.27-.9.69s.4.59.76.73.53.23.53.48-.26.44-.63.44a1.51,1.51,0,0,1-.57-.12l-.12.26a1.74,1.74,0,0,0,.7.14c.58,0,1-.29,1-.73m-3.47.59-.12-.25a.92.92,0,0,1-.47.12c-.45,0-.82-.33-.82-1s.37-1,.82-1a.93.93,0,0,1,.47.11l.12-.24a1.29,1.29,0,0,0-.62-.14c-.62,0-1.14.42-1.14,1.31s.52,1.31,1.14,1.31A1.26,1.26,0,0,0,47.76,17.56Zm-3.74.1V15.12h-.35v2.54ZM41.8,15.38v-.26H40v.26h.73v2.28h.34V15.38ZM38.29,17c0-.43-.39-.59-.74-.73S37,16,37,15.76s.23-.41.56-.41a1.33,1.33,0,0,1,.51.11l.12-.24a1.38,1.38,0,0,0-.64-.14c-.53,0-.9.27-.9.69s.4.59.76.73.53.23.53.48-.26.44-.63.44a1.51,1.51,0,0,1-.57-.12l-.12.26a1.74,1.74,0,0,0,.7.14C37.89,17.7,38.29,17.41,38.29,17Zm-3.62.69V15.12h-.34v2.54Zm-2.39-.1V16.22h-1v.24H32v.91a1.37,1.37,0,0,1-.46.07.93.93,0,0,1-.92-1.05.93.93,0,0,1,1-1,1.53,1.53,0,0,1,.57.1l.12-.23a1.57,1.57,0,0,0-.7-.14,1.23,1.23,0,0,0-1.31,1.31,1.22,1.22,0,0,0,1.29,1.31A1.75,1.75,0,0,0,32.28,17.56ZM28,16.39c0,.58-.26,1-.76,1s-.77-.46-.77-1,.26-1,.77-1S28,15.8,28,16.39Zm.35,0c0-.72-.37-1.31-1.11-1.31s-1.12.59-1.12,1.31.37,1.31,1.12,1.31S28.34,17.11,28.34,16.39Zm-3.92,1.27V17.4h-1.1V15.12H23v2.54Z"/><path class="cls-2" d="M12.08,14.53a2.57,2.57,0,0,0-.37-1.42,3.94,3.94,0,0,0-1-1,10.46,10.46,0,0,0-1.41-.82L7.67,10.5a16.57,16.57,0,0,1-1.61-.86A6.63,6.63,0,0,1,4.65,8.55,4.89,4.89,0,0,1,3.26,5,5.25,5.25,0,0,1,3.7,2.82a4.55,4.55,0,0,1,1.24-1.6,5.32,5.32,0,0,1,1.89-1,7.73,7.73,0,0,1,1-.23,9,9,0,0,0-3,16.91l.09.05a11.56,11.56,0,0,0,1.46.56,6.91,6.91,0,0,0,2,.26,5,5,0,0,0,1.55-.23A3.42,3.42,0,0,0,11,16.91a2.67,2.67,0,0,0,.78-1,3.32,3.32,0,0,0,.27-1.37"/><path class="cls-2" d="M14.25,9.05a6.23,6.23,0,0,0-4.31-.33l-.06-.18a5,5,0,0,1,1.51-.42l.27,0A7.81,7.81,0,0,1,14,8a6.59,6.59,0,0,1,2,.53,6,6,0,0,1,1,.61,9.11,9.11,0,0,1,1,.83l0,0v0c0,.35-.1.69-.17,1a10.31,10.31,0,0,1-.29,1l-.07.19-.11-.17a7.63,7.63,0,0,0-3.06-3m-4.4-1.3.33-.13c.38-.15.76-.32,1.15-.5l1.07-.47c.45-.18.91-.35,1.36-.48a6.84,6.84,0,0,1,1.37-.25,4,4,0,0,1,1.21.13,6.08,6.08,0,0,1,1.32.49l0,0v0c.07.29.14.58.19.88s.08.6.1.9V8.6l-.17-.14A6,6,0,0,0,14.37,7.1a10.15,10.15,0,0,0-4.12.7l-.33.13h0Zm1,1.75a7.85,7.85,0,0,0-1.09,0H9.54l.13-.25h.05A6.75,6.75,0,0,1,14,9.8a6.75,6.75,0,0,1,2.88,3.44l0,0,0,0a8.67,8.67,0,0,1-.87,1.3A8.86,8.86,0,0,1,15,15.77l-.16-.11A4.55,4.55,0,0,0,15,15a3.18,3.18,0,0,0,.11-.64,4,4,0,0,0,0-.69A4.26,4.26,0,0,0,14,10.91,4.79,4.79,0,0,0,10.8,9.5Z"/></g></g></svg>